<?xml version="1.0" encoding="utf-8"?>
<!-- Generator: Adobe Illustrator 26.1.0, SVG Export Plug-In . SVG Version: 6.00 Build 0)  -->
<svg version="1.1" id="Layer_1" xmlns="http://www.w3.org/2000/svg" xmlns:xlink="http://www.w3.org/1999/xlink" x="0px" y="0px"
	 viewBox="0 0 317.13 94.54" style="enable-background:new 0 0 317.13 94.54;" xml:space="preserve">
<style type="text/css">
	.st0{fill:#83C2ED;}
	.st1{fill:#662D91;}
	.st2{fill:#131313;}
	.st3{fill:url(#SVGID_1_);}
	.st4{fill:#EC008C;}
	.st5{fill:url(#SVGID_00000085246728952741159090000010194050107636349363_);}
	.st6{fill:#FCFCFC;}
	.st7{fill:#7F3F98;}
	.st8{fill:#FBFBFB;}
	.st9{fill:#FAFAFA;}
	.st10{fill:#441659;}
	.st11{fill:#D7D7D7;}
	.st12{fill:#DADADA;}
	
		.st13{fill:url(#SVGID_00000034068875539522847580000005709044661596387221_);stroke:url(#SVGID_00000109732741579020876650000013533177092632959906_);stroke-miterlimit:10;}
	
		.st14{fill:url(#SVGID_00000132075799449145734410000003641264943520515256_);stroke:url(#SVGID_00000047754233743727875400000014057106821800072594_);stroke-miterlimit:10;}
	
		.st15{fill:url(#SVGID_00000175317414957662567790000005906890514102188715_);stroke:url(#SVGID_00000090989328657676010720000002799412003598830011_);stroke-miterlimit:10;}
	
		.st16{fill:url(#SVGID_00000154409589544038848110000003260421553055908246_);stroke:url(#SVGID_00000076596383417286191910000006661232946852193944_);stroke-miterlimit:10;}
	
		.st17{fill:url(#SVGID_00000114782754532433351080000010300468706324747178_);stroke:url(#SVGID_00000137092827573917255100000003121686681030664853_);stroke-miterlimit:10;}
	
		.st18{fill:url(#SVGID_00000058551326242491764710000008022640152753802668_);stroke:url(#SVGID_00000168825328393249018700000016628230718075956899_);stroke-miterlimit:10;}
	
		.st19{fill:url(#SVGID_00000101078246716969349480000009283962563152918707_);stroke:url(#SVGID_00000147191385189568513300000012376859019941375374_);stroke-miterlimit:10;}
	
		.st20{fill:url(#SVGID_00000087377267735958962950000016990365243999630478_);stroke:url(#SVGID_00000121246125979101825910000014777870081841473955_);stroke-miterlimit:10;}
	.st21{fill:#BCBCBC;}
	.st22{fill:#1D1D1D;}
	.st23{fill:#4D1568;}
	.st24{fill:#A157C4;}
	.st25{fill:#232323;}
	.st26{fill:#A86AC6;}
	.st27{fill:#4C2160;}
</style>
<g>
	<g>
		<g>
			<path class="st0" d="M101.67,0.51h16.83l1.49,8.05h-9.43v10.26h7.16v7.46h-7.16v17.48h-8.89V0.51z"/>
			<path class="st0" d="M122.67,0.51h8.65v43.26h-8.65V0.51z"/>
			<path class="st0" d="M157.16,26.16c0,0.96-0.33,1.83-0.98,2.63s-1.62,1.19-2.89,1.19l4.54,13.78h-8.95l-4.18-13.78h-1.13v13.78
				h-8.65V0.51h16.41c2.03,0,3.51,0.51,4.45,1.52c0.93,1.01,1.4,2.38,1.4,4.09V26.16z M143.56,8.08V23h4.24
				c0.56,0,0.83-0.3,0.83-0.9V8.98c0-0.6-0.28-0.9-0.83-0.9H143.56z"/>
			<path class="st0" d="M162.89,43.77l-1.55-8.06h9.31c0.68,0,1.01-0.3,1.01-0.89v-7.88c0-0.6-0.12-0.95-0.36-1.07
				c-0.24-0.12-0.66-0.18-1.25-0.18h-4.48c-0.64,0-1.24-0.05-1.82-0.15c-0.58-0.1-1.09-0.33-1.55-0.69
				c-0.46-0.36-0.82-0.86-1.07-1.49c-0.26-0.64-0.39-1.49-0.39-2.57V6.12c0-1.71,0.47-3.07,1.4-4.09c0.93-1.01,2.42-1.52,4.45-1.52
				h11.93l1.49,8.05h-9.79c-0.72,0-1.07,0.32-1.07,0.96v7.88c0,0.44,0.11,0.74,0.33,0.9s0.55,0.24,0.99,0.24h5.43
				c1.39,0,2.46,0.33,3.19,0.98c0.74,0.66,1.1,1.8,1.1,3.43V37.2c0,2.39-0.49,4.08-1.46,5.07c-0.98,1-2.7,1.49-5.16,1.49H162.89z"/>
			<path class="st0" d="M200.24,0.51l2.15,8.05h-5.79v35.21h-8.83V8.56h-5.79l2.27-8.05H200.24z"/>
			<path class="st0" d="M220.65,23.36v20.41h-8.41V0.51h9.13l4.71,18.26l4.71-18.26h9.19v43.26h-8.41V23.36l-5.49,17.3L220.65,23.36
				z"/>
			<path class="st0" d="M266,37.62c0,0.83-0.1,1.62-0.3,2.36c-0.2,0.74-0.54,1.38-1.01,1.94c-0.48,0.56-1.11,1-1.91,1.34
				c-0.8,0.34-1.79,0.51-2.98,0.51h-10.02c-1.19,0-2.19-0.17-2.98-0.51c-0.8-0.34-1.43-0.79-1.91-1.34
				c-0.48-0.56-0.82-1.2-1.01-1.94c-0.2-0.74-0.3-1.52-0.3-2.36V6.12c0-1.71,0.47-3.07,1.4-4.09c0.93-1.01,2.42-1.52,4.45-1.52
				h10.74c2.03,0,3.51,0.51,4.45,1.52c0.93,1.01,1.4,2.38,1.4,4.09V37.62z M253.05,8.08c-0.52,0-0.78,0.28-0.78,0.84v26.37
				c0,0.32,0.05,0.55,0.15,0.69c0.1,0.14,0.33,0.21,0.69,0.21h3.28c0.36,0,0.59-0.07,0.69-0.21c0.1-0.14,0.15-0.37,0.15-0.69V8.92
				c0-0.56-0.26-0.84-0.78-0.84H253.05z"/>
			<path class="st0" d="M292.01,37.62c0,0.83-0.1,1.62-0.3,2.36c-0.2,0.74-0.54,1.38-1.01,1.94c-0.48,0.56-1.11,1-1.91,1.34
				c-0.8,0.34-1.79,0.51-2.98,0.51h-10.02c-1.19,0-2.19-0.17-2.98-0.51c-0.8-0.34-1.43-0.79-1.91-1.34
				c-0.48-0.56-0.82-1.2-1.01-1.94c-0.2-0.74-0.3-1.52-0.3-2.36V6.12c0-1.71,0.47-3.07,1.4-4.09c0.93-1.01,2.42-1.52,4.45-1.52
				h10.74c2.03,0,3.51,0.51,4.45,1.52c0.93,1.01,1.4,2.38,1.4,4.09V37.62z M279.06,8.08c-0.52,0-0.78,0.28-0.78,0.84v26.37
				c0,0.32,0.05,0.55,0.15,0.69c0.1,0.14,0.33,0.21,0.69,0.21h3.28c0.36,0,0.59-0.07,0.69-0.21c0.1-0.14,0.15-0.37,0.15-0.69V8.92
				c0-0.56-0.26-0.84-0.78-0.84H279.06z"/>
			<path class="st0" d="M295.59,0.51h8.23l4.42,17.36V0.51h8.89v43.26h-8.89l-4.65-18.08v18.08h-8V0.51z"/>
		</g>
		<rect x="101.24" y="49.63" class="st1" width="215.89" height="44.91"/>
		<g>
			<path d="M150.6,72.04c0,3.17-1.25,6.11-3.4,8.56c-0.03,0.04-0.07,0.07-0.1,0.11c-0.39,0.43-0.8,0.85-1.24,1.25l-0.01-0.01
				c-3.7,3.36-9.22,5.51-15.41,5.51c-11.13,0-20.15-6.91-20.15-15.43s9.02-15.43,20.15-15.43c7.42,0,13.9,3.07,17.4,7.65l-6.91,3.06
				c-2.12-2.75-6.02-4.59-10.49-4.59c-6.72,0-12.17,4.17-12.17,9.32s5.45,9.32,12.17,9.32c4.62,0,8.63-1.97,10.7-4.87h-13.21v-4.45
				H150.6z"/>
			<path d="M187.55,86.27h-7.95l-3.32-5.67h-18.75l-3.32,5.67h-7.95l16.67-28.48h7.95L187.55,86.27z M172.88,74.79l-5.97-10.21
				l-5.97,10.21H172.88z"/>
			<path d="M230.06,57.81v28.48h-7.75V71.05l-8.92,15.24h-7.95l-8.92-15.24v15.24h-7.75V57.81h7.95l12.69,21.68l12.69-21.68H230.06z
				"/>
			<path d="M241.08,63.73v5.34h21.71V75h-21.71v5.34h25.58v5.93h-33.33V57.8h33.33v5.93H241.08z"/>
			<path d="M269.81,66.34c-0.05-1.76,0.73-5.08,6.25-7.47c3.16-1.37,7.32-2.18,11.7-2.25c2.08-0.04,4.15,0.1,6.11,0.42
				c4.44,0.71,8.63,2.55,12.18,5.31c0.39,0.3,0.73,0.59,0.99,0.85l-6.72,3.19c-0.4-0.32-4.92-3.71-12.8-3.47
				c-4.78,0.14-9.62,1.22-9.56,3.3c0.08,2.79,8.99,2.57,12.08,2.73c12.8,0.64,16.92,4.48,17.04,8.77c0.12,4.06-4.26,9.31-17.95,9.72
				c-11.84,0.35-19-4.83-20.53-6.55l6.7-3.16c1.91,2,7.78,3.51,14.08,3.32c5.99-0.18,9.61-1.54,9.56-3.21
				c-0.05-1.58-1.5-3.13-12.08-3.01C275.72,74.95,269.94,70.62,269.81,66.34z"/>
		</g>
	</g>
	<g>
		<circle cx="47.19" cy="47.19" r="47.19"/>
		<g>
			<path class="st2" d="M32.13,48.73c0.09-0.14,0.19-0.27,0.28-0.41c1.02-0.86,1.45-2.04,1.67-3.3c0.45-2.65-0.57-4.84-2.3-6.71
				c-4.21-4.56-11.62-3.13-13.66,2.56c-0.07,0.18-0.02,0.41-0.02,0.61c-0.14,0.41-0.37,0.8-0.4,1.22c-0.13,1.64,0.09,3.23,0.96,4.68
				c1.12,2.11,2.91,3.38,5.17,3.95c1.5,0.38,3.03,0.37,4.47-0.35c1.99-0.73,2.79-2.39,3.31-4.26c0.03,0.36,0.07,0.71,0.1,1.07
				c-0.15,0.49-0.3,0.98-0.46,1.47c0.06,0.03,0.12,0.06,0.18,0.09C31.66,49.13,31.9,48.93,32.13,48.73z M62.57,77.14
				c-0.33-0.06-0.66-0.16-0.99-0.16c-0.13,0-0.25,0.26-0.37,0.4c0.13,0.1,0.27,0.2,0.4,0.3c0.42,0.37,0.83,0.74,1.26,1.13
				C63.41,77.6,63.37,77.4,62.57,77.14z M32.69,78.91c0,0.91,0,1.82,0.01,2.73c0,0,0.16,0.01,0.25,0.01
				c0.15-0.86,0.32-1.71,0.43-2.57c0.05-0.39-0.1-0.71-0.64-0.7C32.72,78.56,32.71,78.74,32.69,78.91z M20.59,59.35
				c-0.41-0.92-0.82-1.84-1.24-2.76c-0.18-0.46-0.37-0.93-0.55-1.39c-0.28-0.74-0.55-1.47-0.83-2.21c-0.26-0.76-0.49-1.53-0.78-2.28
				c-1.48-3.86-1.79-7.82-0.91-11.83c1.62-7.45,5.66-13.25,12.2-17.22c2.51-1.53,5.18-2.77,8.21-2.93c1.09,0.55,1.25,1.18,0.48,2.08
				c-0.32,0.38-0.72,0.69-1.09,1.02c-0.67,0.61-1.35,1.22-2.03,1.82c-2.05,1.68-3.59,3.73-4.53,6.22c-0.8,1.45-1.12,4.18-0.51,4.9
				c0.13-0.32,0.25-0.61,0.36-0.89c0.1,0.06,0.28,0.12,0.28,0.19c0.03,0.4,0.01,0.79,0.01,1.19c0.08,0.04,0.16,0.08,0.23,0.12
				c0.55-0.6,1.11-1.2,1.66-1.79c2.03-2.13,4.24-4.04,6.68-5.7c4.53-3.08,9.41-5.33,14.82-6.3c0.52-0.09,1.04-0.17,1.68-0.27
				c-0.22-0.19-0.32-0.29-0.43-0.37c-2.46-1.89-5.24-3.13-8.2-3.93c-9.93-2.67-18.68-0.42-25.57,7.17
				c-7.56,8.33-8.77,18.1-5.01,28.56c0.76,2.11,1.91,4.05,3.53,5.66c0.08,0.08,0.16,0.16,0.23,0.23c0.37,0.4,0.75,0.79,1.12,1.19
				c0.21,0.3,0.42,0.61,0.62,0.91c0.07-0.05,0.14-0.11,0.22-0.16C21.04,60.17,20.82,59.76,20.59,59.35z M22.1,66.36
				c0.36,0.2,0.71,0.41,1.07,0.61c0.01,0.37-0.01,0.74,0.05,1.1c0.03,0.19,0.17,0.42,0.33,0.52c3.32,2.02,6.65,4.03,9.99,6.04
				c1.07,0.81,2.14,1.62,3.22,2.43c0.09-0.07,0.18-0.15,0.27-0.22c-0.24-0.41-0.48-0.82-0.72-1.24c0.18-0.03,0.41-0.14,0.53-0.06
				c0.35,0.21,0.65,0.5,0.98,0.75c1.69,1.27,3.37,2.54,5.07,3.79c0.33,0.24,0.76,0.36,1.24,0.59c0-0.31,0-0.46,0-0.61
				c0.52,0.24,1,0.46,1.54,0.7c-0.18-0.41-0.31-0.71-0.43-1c0.46,0.3,0.92,0.61,1.39,0.89c0.48,0.29,0.91,0.71,1.55,0.59
				c0.29-0.05,0.66,0.11,0.77-0.36c0.09-0.4-0.05-0.63-0.38-0.85c-2.23-1.5-4.43-3.03-6.66-4.52c-6.19-4.14-12.74-7.62-19.35-11.03
				c-0.69-0.36-1.5-0.49-2.26-0.73c-0.94-0.78-2.02-0.78-3.28-0.76c0.17,0.24,0.2,0.33,0.27,0.38c1.16,0.95,2.32,1.9,3.5,2.83
				c0.09,0.07,0.33-0.05,0.5-0.08C21.54,66.2,21.82,66.28,22.1,66.36z M10.09,68.3c-0.2,0.1-0.4,0.2-0.76,0.37
				c0.46,0.14,0.71,0.23,0.97,0.29c0.85,0.2,1.71,0.38,2.56,0.57c-0.13,0.17-0.27,0.34-0.4,0.5c0.03,0.04,0.06,0.09,0.09,0.13
				c0.47-0.3,0.94-0.6,1.42-0.89c0.72,0.38,1.43,0.77,2.15,1.14c0.17,0.08,0.4,0.14,0.57,0.09c0.53-0.19,1.04-0.43,1.56-0.65
				c0.87-0.07,1.75-0.14,2.6-0.21c-2.5-1.48-5.25-2.25-8.26-2.01C11.76,67.85,10.93,68.07,10.09,68.3z M31.71,78.62
				c0.29-0.51,0.17-0.84-0.41-0.98c-0.5-0.12-0.99-0.25-1.49-0.37c-0.22,0.15-0.44,0.31-0.71,0.5c0.24,0.23,0.42,0.4,0.59,0.56
				c0.11,0.64,0.59,0.95,1.09,1.22c0.18,0.1,0.41,0.09,0.62,0.13c0.02-0.21,0.03-0.42,0.05-0.64C31.54,78.9,31.62,78.76,31.71,78.62
				z M30.47,53.6c0.1,0.22,0.2,0.44,0.31,0.66c0.16,0.31,0.3,0.62,0.47,0.92c1.9,3.3,4.77,5.52,8.1,7.21
				c0.79,0.4,1.61,0.75,2.41,1.13c0.47,0.22,0.94,0.45,1.4,0.67c0.88,0.37,1.75,0.8,2.65,1.1c2.04,0.68,4.09,1.29,6.14,1.94
				c0.29,0.1,0.58,0.21,0.87,0.31c-0.41,0.12-0.81,0.16-1.2,0.11c-1.76-0.18-3.52-0.39-5.28-0.59c-0.31-0.09-0.61-0.18-0.92-0.26
				c-4.51-1.1-8.61-2.99-12.08-6.12c-0.43-0.39-0.85-0.78-1.28-1.17c-0.06,0.03-0.11,0.07-0.17,0.1c0.32,0.88,0.65,1.77,1.03,2.79
				c-1.45-1.07-2.44-2.41-3.56-3.72c-0.11,0.46-0.25,0.96-0.09,1.32c0.4,0.86,0.83,1.75,1.43,2.47c1.8,2.11,4.08,3.62,6.58,4.76
				c4.46,2.04,9.18,2.81,14.06,2.76c1.51-0.02,3.02-0.09,4.53-0.14c0.39-0.03,0.78-0.04,1.16-0.1c2.06-0.34,1.71-0.01,2.35-2.05
				c0.07-0.24,0.11-0.48,0.14-0.73c0-0.05-0.14-0.11-0.22-0.16c-2.25-0.18-4.5-0.36-6.75-0.54c-1.44-0.35-2.9-0.62-4.31-1.08
				c-1.62-0.53-3.19-1.21-4.78-1.83c-0.42-0.22-0.83-0.45-1.25-0.67c-1.47-1.02-2.93-2.03-4.4-3.05c-0.41-0.32-0.83-0.65-1.24-0.97
				c-0.48-0.64-0.94-1.28-1.44-1.9c-1.38-1.74-2.68-3.53-3.38-5.67c-0.37,0.21-0.73,0.47-1.12,0.63c-0.67,0.27-0.65,0.72-0.42,1.26
				C30.27,53.19,30.37,53.39,30.47,53.6z M47.86,29.75c0.46-0.18,0.93-0.36,1.39-0.55c0.26-0.08,0.53-0.15,0.79-0.23
				c3.42-1.05,6.86-1.98,10.49-1.96c0.27,0,0.55-0.03,0.81-0.1c0.69-0.19,0.83-0.6,0.33-1.07c-0.32-0.3-0.78-0.65-1.16-0.63
				c-1.52,0.06-3.03,0.26-4.54,0.4c-0.55,0.14-1.1,0.29-1.64,0.43c-1.76,0.59-3.51,1.18-5.27,1.77c-0.73,0.32-1.46,0.64-2.19,0.97
				c-0.64,0.32-1.28,0.64-1.92,0.97c-0.24,0.13-0.48,0.27-0.71,0.4c-1.79,1.1-3.63,2.11-5.34,3.32c-1.46,1.03-2.76,2.29-4.12,3.44
				c-0.42,0.45-0.84,0.91-1.26,1.36c0.03,0.21,0.06,0.43,0.11,0.75c1.39-1.16,2.56-2.26,3.86-3.19c1.82-1.31,3.72-2.49,5.59-3.72
				c0.78-0.41,1.56-0.82,2.35-1.23C46.22,30.5,47.04,30.13,47.86,29.75z M53.63,83.59c0.2,0.36,0.35,0.76,0.9,0.65
				c0.67-0.13,1.35-0.21,2.02-0.36c0.75-0.17,0.82-0.43,0.35-1.08c-0.53-1.24-1.03-1.48-2.36-1.16c-0.48,0.12-0.98,0.2-1.46,0.3
				c-0.3,0-0.61,0-0.78,0c0.32,1.22,0.64,2.46,0.97,3.71c0.19-0.44,0.28-0.93,0.35-1.43C53.64,84.01,53.63,83.8,53.63,83.59z
				 M27.18,54.54c-1.54-0.06-2.74,0.56-3.62,1.8c-0.08,0.12-0.07,0.3-0.11,0.45c-0.54,0.64-0.77,1.36-0.5,2.24
				c0.86-2.3,2.53-3.66,4.85-4.38C27.6,54.61,27.39,54.58,27.18,54.54z M17.4,71.73c-0.76,0.46-1.31,1.09-1.75,1.83
				c0.04,0.04,0.08,0.08,0.13,0.12c0.5-0.46,1-0.92,1.5-1.38c1.1,0.5,2.2,1.01,3.3,1.51c-0.4,0.52-0.81,1.05-1.26,1.64
				c1.03-0.73,1.97-1.39,2.91-2.06c0,0.11,0.05,0.26,0,0.31c-0.52,0.49-0.23,0.75,0.22,1.03c1.2,0.76,2.38,1.54,3.56,2.33
				c0.82,0.54,0.9,0.53,1.56-0.26c0.24-0.17,0.48-0.34,0.72-0.52c0.68-0.27,1.36-0.52,2.11-0.1c-0.21-0.27-0.41-0.48-0.66-0.63
				c-2.24-1.29-4.48-2.58-6.73-3.85c-1.09-0.62-2.29-0.77-3.52-0.63c-0.41,0.09-0.82,0.18-1.23,0.27
				C17.97,71.48,17.69,71.6,17.4,71.73z M45.07,76.32c0.74,0.27,1.47,0.55,2.21,0.82c1.98,0.45,3.95,0.91,5.93,1.36
				c-0.01,0.33-0.07,0.68-0.02,1c0.03,0.18,0.25,0.46,0.37,0.46c0.85-0.03,1.7-0.13,2.55-0.2c1.68-0.05,3.12-0.61,3.78-2.25
				c0.85-2.08,0.61-4.11-0.61-6.02c-0.73,0.51-1.42,0.99-2.11,1.47c-0.23,0.1-0.46,0.18-0.68,0.3c-2.28,1.23-4.72,1.91-7.28,2.2
				c-1.96,0-3.91,0-6.04,0C43.9,75.79,44.49,76.05,45.07,76.32z M58.84,82.19c0.2,0.33,0.39,0.66,0.68,1.14
				c0.78-0.67,1.57-1.25,2.24-1.94c0.95-0.98,0.69-1.98-0.57-2.61c-0.19,0.08-0.4,0.13-0.58,0.24c-0.82,0.53-1.63,1.07-2.44,1.6
				c-0.18,0.12-0.37,0.23-0.56,0.35c-0.11,0.01-0.22,0.03-0.41,0.05c1,1.17,1.49,2.45,1.47,3.93c0.47-0.73,0.45-1.49,0.22-2.28
				C58.85,82.52,58.86,82.36,58.84,82.19z M39.44,69.95c-0.08-0.04-0.16-0.09-0.23-0.13c-0.19-0.11-0.37-0.26-0.57-0.34
				c-1.18-0.44-2.39-0.8-3.54-1.3c-2.74-1.17-5.45-2.39-8.17-3.6c-0.66-0.32-1.31-0.64-1.97-0.96c-0.03,0.06-0.07,0.13-0.1,0.19
				c0.54,0.31,1.08,0.62,1.62,0.93c3.5,1.94,6.98,3.91,10.5,5.81c0.79,0.43,1.7,0.62,2.56,0.93c0.37,0.12,0.73,0.3,1.11,0.35
				c2.17,0.31,4.34,0.74,6.52,0.84c1.78,0.08,3.59-0.24,5.38-0.38c1.29-0.2,2.57-0.44,3.76-1.02c-0.26-0.06-0.5-0.08-0.74-0.06
				c-4.05,0.41-8.08,0.33-12.08-0.53C42.13,70.41,40.78,70.19,39.44,69.95z M35.18,81.09c5.11,1.95,10.35,3.27,15.85,3.3
				c0.9,0.01,0.96-0.12,0.54-0.95c-0.39-0.89-0.98-1.22-2.04-1.2c-1.8,0.02-3.62-0.13-5.41-0.4c-3.46-0.52-6.76-1.68-10.06-2.8
				c-0.12,0-0.3-0.04-0.35,0.02c-0.31,0.4-0.09,1.37,0.38,1.6C34.45,80.82,34.82,80.95,35.18,81.09z M65.07,35.67
				c-0.23-0.62-0.59-1.12-1.2-1.44c0.35,0.57,0.7,1.15,1.06,1.72c1.61,3.29,2.68,6.72,2.82,10.41c0.19,4.86-0.88,9.39-3.68,13.42
				c-0.8,1.16-1.78,2.2-2.67,3.29c0.01,0.06,0.01,0.11,0.02,0.17c0.25-0.07,0.57-0.05,0.72-0.21c0.8-0.82,1.66-1.6,2.3-2.54
				c4.09-5.94,5-12.44,3.15-19.35C67.06,39.17,66.27,37.32,65.07,35.67z M33.67,33.2c-0.7,0.77-1.39,1.54-2.09,2.31
				c-0.2,0.23-0.7,0.38-0.34,0.8c0.35,0.41,0.78,0.75,1.24,1.18c0.11-0.16,0.16-0.26,0.24-0.34c2.8-2.97,5.98-5.49,9.5-7.54
				c4.63-2.7,9.54-4.67,14.89-5.43c0.16-0.02,0.38-0.02,0.45-0.12c0.08-0.11,0.04-0.32,0.05-0.49c-0.53-0.74-1.3-1.05-2.16-0.98
				c-1.46,0.13-2.93,0.26-4.35,0.58c-3.95,0.9-7.55,2.67-10.95,4.84C37.81,29.52,35.6,31.19,33.67,33.2z M59.54,61.54
				c-0.27,0.3-0.53,0.61-0.8,0.91c0.05,0.06,0.1,0.12,0.16,0.18c0.31-0.22,0.62-0.44,0.93-0.65c0.51-0.49,1.07-0.94,1.52-1.48
				c3.6-4.21,5.22-9.12,4.8-14.63c-0.15-1.97-0.64-3.92-1.02-5.88c-0.06-0.28-0.36-0.74-0.55-0.74c-1.16-0.01-2.31,0.1-3.49,0.16
				c1.66,6.13,1.61,12.08-0.87,18.08c0.64-0.45,1.13-0.78,1.66-1.15C61.4,58.25,60.59,59.94,59.54,61.54z M8.46,57.29
				c1.28-1.01,2.55-2.02,3.84-3.01c1.2-0.92,1.17-0.9,0.71-2.34c-2.7-8.38-2.01-16.5,2.23-24.21c1.12-2.03,2.73-3.78,4.12-5.66
				c0.59-0.53,1.17-1.09,1.78-1.6c9.82-8.29,23.97-8.75,34.27-1.1c1.15,0.86,2.25,1.83,3.2,2.9c0.45,0.51,0.83,0.78,1.46,0.89
				c1.57,0.28,2.82,1.04,3.52,2.56c0.49,1.07,0.24,2.12-0.08,3.15c-0.23,0.74-0.11,1.32,0.4,1.95c3.49,4.34,5.74,9.22,6.13,14.83
				c0.52,7.4-1.68,13.86-6.95,19.14c-1.02,1.02-1.76,1.99-1.92,3.49c-0.09,0.81-0.03,1.36,0.62,1.81c0.21,0.27,0.41,0.55,0.62,0.82
				c1.98,2.48,2.52,5.3,1.7,8.3c-0.36,1.33-0.59,2.61-0.54,3.97c0.02,0.5-0.09,1-0.13,1.51c-0.01,0.17,0,0.34,0,0.61
				c5.4-2.36,9.92-5.81,14.04-9.85c-0.9-0.78-0.93-1.34-0.16-2.18c0.42-0.45,0.93-0.82,1.35-1.28c0.77-0.84,1.61-1.65,2.23-2.59
				c2.84-4.28,4.6-9.02,5.63-14.03c1.39-6.72,1.36-13.4-0.52-20.03c-0.3-1.05-0.74-2.05-1.11-3.08c-0.27-0.72-0.5-1.47-0.83-2.16
				c-3.09-6.61-7.66-12.01-13.59-16.22C62.8,8.42,54.19,6.2,44.86,6.71c-2.37,0.13-4.71,0.67-7.06,1.02
				c-0.13,0.03-0.27,0.04-0.4,0.08c-4.98,1.35-9.62,3.44-13.82,6.46c-3,2.15-5.7,4.6-7.6,7.84c-1.94,3.3-4.03,6.52-5.92,9.84
				c-0.64,1.13-0.93,2.47-1.34,3.73c-0.47,1.45-0.81,2.96-1.39,4.37c-0.37,0.9-0.7,1.78-0.75,2.75c-0.06,1.13-0.14,2.26-0.22,3.39
				c0.06,0.02,0.13,0.04,0.19,0.06c0.45-0.72,0.9-1.45,1.35-2.17c0.1,0.42,0.05,0.76,0.01,1.1c-0.52,3.92-0.4,7.82,0.31,11.71
				c-0.16,0.23-0.29,0.5-0.5,0.68c-0.47,0.42-0.98,0.8-1.47,1.19c0.05,0.06,0.1,0.12,0.15,0.18C7.08,58.38,7.77,57.83,8.46,57.29z
				 M85.58,67.68c0.05,0.05,0.1,0.09,0.15,0.14c0.14-0.12,0.31-0.22,0.41-0.37c0.93-1.44,1.95-2.84,2.75-4.36
				c1.85-3.52,2.69-7.35,3.09-11.28c0.46-4.55,0.42-9.08-0.53-13.57c-1.98-9.37-6.44-17.42-13.43-23.93
				C68.09,5.04,56.24,1.11,42.72,2.32c-8.32,0.74-15.88,3.67-22.5,8.7C9.56,19.14,3.38,29.9,2.08,43.32
				c-0.18,1.81-0.02,3.65-0.02,5.47c0.44-2.01,0.77-4.02,1.18-6.02c1.52-7.39,4.17-14.31,8.62-20.45
				C19.64,11.57,30.21,5.58,43.38,4.26c8.17-0.82,15.97,0.69,23.26,4.46c8.26,4.27,14.51,10.6,18.82,18.83
				c2.4,4.59,4,9.46,4.65,14.6c0.71,5.58,0.13,11.08-1.3,16.5C87.99,61.75,86.98,64.79,85.58,67.68z M10.12,65.11
				c0.11,0.04,0.21,0.08,0.32,0.12c0.3-0.38,0.57-0.78,0.9-1.12c0.26-0.27,0.3-0.47,0.13-0.83c-0.23-0.47-0.33-1-0.49-1.5
				c0.34,0,0.54,0.06,0.7,0.18c0.62,0.46,1.39,0.31,1.89,0.04c1.16-0.65,2.2-1.53,3.32-2.33c-0.76-1.31-1.49-2.56-2.26-3.88
				c-2.16,1.75-4.24,3.43-6.31,5.13c-0.12,0.1-0.2,0.44-0.13,0.58C8.81,62.7,9.47,63.9,10.12,65.11z M33.73,50.51
				c-0.08,0.01-0.17,0.03-0.25,0.04c-0.01,0.39-0.11,0.81-0.01,1.18c0.12,0.48,0.37,0.94,0.59,1.39c1.82,3.62,4.75,6.12,8.17,8.14
				c4.01,2.36,8.38,3.59,12.98,3.97c1.47,0.12,2.97-0.02,4.46-0.09c0.33-0.02,0.66-0.27,0.98-0.41c-0.02-0.08-0.03-0.16-0.05-0.23
				c-5.53,0.76-10.59-0.81-15.48-3.1C40.12,59.04,36.29,55.43,33.73,50.51z M64.28,37.37c0.02-0.12,0.04-0.17,0.03-0.21
				c-0.92-2.78-2.37-5.25-4.41-7.36c-0.12-0.12-0.32-0.24-0.47-0.23c-1.08,0.08-2.16,0.19-3.25,0.3c0.04,0.16,0.04,0.21,0.06,0.24
				c1.74,2.24,3.14,4.67,4.16,7.32c0.05,0.13,0.26,0.29,0.38,0.28C61.94,37.62,63.1,37.49,64.28,37.37z M57.6,33.48
				c-0.02-0.64-0.64-1.22-1.27-1.2c-0.54,0.02-0.99,0.44-0.99,0.94c0,0.59,0.72,1.22,1.37,1.19C57.22,34.39,57.61,33.98,57.6,33.48z
				 M26.74,79.18c0.07,0.07,0.15,0.14,0.22,0.22c0.65-0.56,1.29-1.12,1.94-1.68c-0.08-0.09-0.15-0.18-0.23-0.26
				C28.03,78.03,27.38,78.6,26.74,79.18z"/>
			<path class="st0" d="M61.78,70.08c-0.65-0.46-0.71-1-0.62-1.81c0.16-1.49,0.9-2.46,1.92-3.49c5.27-5.28,7.48-11.74,6.95-19.14
				c-0.4-5.61-2.64-10.49-6.13-14.83c-0.5-0.63-0.63-1.2-0.4-1.95c0.32-1.03,0.57-2.08,0.08-3.15c-0.69-1.52-1.94-2.28-3.52-2.56
				c-0.63-0.11-1.02-0.39-1.46-0.89c-0.95-1.08-2.05-2.05-3.2-2.9c-10.3-7.65-24.45-7.18-34.27,1.1c-0.61,0.51-1.18,1.06-1.78,1.6
				c-0.73-0.45-0.71-0.43-0.15-1.08c2.68-3.08,6.1-5.02,9.85-6.47c2.54-0.98,5.11-1.9,7.67-2.85c0.13-0.05,0.23-0.15,0.34-0.23
				c-0.01-0.05-0.02-0.09-0.03-0.14c-2.03-0.16-4.05-0.33-6.08-0.49c1.32-0.81,2.71-1.35,4.19-1.52c1.16-0.13,2.06-0.54,2.65-1.57
				c2.35-0.35,4.7-0.89,7.06-1.02c9.32-0.51,17.94,1.72,25.6,7.15c5.93,4.21,10.49,9.61,13.59,16.22c0.33,0.7,0.55,1.44,0.83,2.16
				c0.07,0.36,0.16,0.72,0.21,1.08c0.27,1.65,0.73,3.29,0.74,4.94c0.02,2.86-0.18,5.73-0.39,8.58c-0.4,5.48-2.3,10.4-5.62,14.78
				c-0.42,0.55-0.93,1.04-1.4,1.56c-0.05-0.04-0.11-0.08-0.16-0.12c0.86-1.83,2.03-3.54,2.38-5.59c-0.2,0.13-0.34,0.3-0.48,0.47
				c-0.74,0.85-1.44,1.72-2.23,2.53c-1.18,1.2-2.57,2.09-4.25,2.41c-2.29,0.44-3.47-0.78-2.98-3.04c0.03-0.16,0.07-0.31,0.12-0.47
				c1.77-5.32,2.2-10.76,1.53-16.31c-0.34-2.84-0.97-5.61-2.39-8.14c-0.37-0.66-0.77-1.29-1.16-1.94c-0.04,0.02-0.09,0.05-0.13,0.07
				c0.13,0.37,0.25,0.73,0.38,1.1c-0.03,0.17-0.06,0.33-0.11,0.6c-0.22-0.26-0.37-0.44-0.52-0.61c-0.05,0.02-0.1,0.05-0.15,0.07
				c0.12,0.35,0.24,0.7,0.36,1.06c0.21,0.58,0.4,1.17,0.64,1.74c2.25,5.52,2.83,11.16,1.31,16.97c-1.25,4.77-3.52,8.94-7.21,12.27
				c-0.57,0.51-0.87,1.03-0.96,1.79C62.31,68.73,61.99,69.4,61.78,70.08z M81.17,53.16c0.3-0.58,0.61-1.17,0.91-1.75
				c-0.08-0.04-0.15-0.09-0.23-0.13c-0.28,0.35-0.55,0.7-0.83,1.05c-0.36,0.24-0.7,0.52-1.09,0.7c-0.18,0.08-0.57,0.04-0.66-0.09
				c-0.13-0.19-0.14-0.53-0.07-0.75c0.07-0.22,0.33-0.37,0.49-0.56c0.64-0.74,1.33-1.45,1.91-2.23c1.19-1.6,0.19-3.13-0.98-4.04
				c-1.24-0.96-2.79-0.76-3.88,0.45c-1.46,1.63-1.83,4.91-0.74,6.8C77.4,55,80.37,54.92,81.17,53.16z M64.75,20.23
				c2.07,0,2.86-1.18,2-2.78c-1.21-2.24-3.19-3.46-5.7-3.65c-1.85-0.14-2.66,1.28-1.71,2.94C60.58,18.92,62.6,19.92,64.75,20.23z
				 M73.61,35.18c-0.02,2.15,1.77,4.22,3.83,4.43c1.68,0.17,2.91-1.08,2.58-2.7c-0.39-1.96-1.59-3.28-3.48-3.89
				C74.84,32.46,73.62,33.4,73.61,35.18z M76.77,22.89c0.62,2.63,1.66,5.06,3.29,7.2c0.11-0.05,0.22-0.11,0.34-0.16
				C80.18,27.1,78.77,24.86,76.77,22.89z M69.67,19.08c0.03,0.7,1.13,2.19,1.78,2.42c0.34,0.12,0.53,0.02,0.55-0.36
				c0.04-0.76-1-2.3-1.71-2.51C69.9,18.52,69.65,18.63,69.67,19.08z M58.32,12.66c0.34-0.15,0.65-0.19,0.7-0.33
				c0.05-0.16-0.08-0.49-0.23-0.57c-0.54-0.32-1.12-0.59-1.7-0.83c-0.12-0.05-0.42,0.06-0.46,0.17c-0.06,0.15-0.03,0.47,0.08,0.55
				C57.22,12.02,57.79,12.34,58.32,12.66z M74.58,26.6c-0.04,0.03-0.21,0.1-0.2,0.15c0.05,0.28,0.08,0.59,0.23,0.81
				c0.13,0.2,0.41,0.31,0.64,0.42c0.03,0.02,0.19-0.12,0.22-0.2C75.61,27.42,75.03,26.6,74.58,26.6z M50.66,12.75
				c0.43,0.71,1.07,0.9,1.7,0.56C51.99,12.72,51.4,12.51,50.66,12.75z"/>
			<linearGradient id="SVGID_1_" gradientUnits="userSpaceOnUse" x1="61.775" y1="58.7617" x2="87.4884" y2="58.7617">
				<stop  offset="0" style="stop-color:#2484C6"/>
				<stop  offset="1" style="stop-color:#2484C6;stop-opacity:0"/>
			</linearGradient>
			<path class="st3" d="M69.06,34.15c-0.13-0.37-0.25-0.73-0.38-1.1c0.04-0.02,0.09-0.05,0.13-0.07c0.39,0.65,0.79,1.28,1.16,1.94
				c1.41,2.53,2.04,5.29,2.39,8.14c0.67,5.55,0.24,10.99-1.53,16.31c-0.05,0.15-0.09,0.31-0.12,0.47c-0.49,2.26,0.69,3.48,2.98,3.04
				c1.68-0.32,3.07-1.2,4.25-2.41c0.78-0.8,1.49-1.68,2.23-2.53c0.14-0.17,0.28-0.34,0.48-0.47c-0.35,2.05-1.52,3.76-2.38,5.59
				c0.05,0.04,0.11,0.08,0.16,0.12c0.47-0.52,0.98-1.01,1.4-1.56c3.32-4.37,5.22-9.3,5.62-14.78c0.21-2.86,0.41-5.72,0.39-8.58
				c-0.01-1.65-0.48-3.3-0.74-4.94c-0.06-0.36-0.14-0.72-0.21-1.08c0.38,1.03,0.82,2.03,1.11,3.08c1.88,6.63,1.91,13.32,0.52,20.03
				c-1.04,5.01-2.79,9.75-5.63,14.03c-0.63,0.94-1.46,1.75-2.23,2.59c-0.42,0.46-0.93,0.82-1.35,1.28c-0.78,0.84-0.74,1.4,0.16,2.18
				c-4.12,4.05-8.64,7.5-14.04,9.85c0-0.27-0.01-0.44,0-0.61c0.04-0.5,0.15-1.01,0.13-1.51c-0.05-1.36,0.18-2.64,0.54-3.97
				c0.82-3,0.28-5.82-1.7-8.3c-0.21-0.27-0.41-0.55-0.62-0.82c0.22-0.68,0.54-1.35,0.63-2.05c0.1-0.76,0.39-1.28,0.96-1.79
				c3.69-3.33,5.96-7.5,7.21-12.27c1.52-5.81,0.95-11.45-1.31-16.97c-0.23-0.57-0.42-1.16-0.64-1.74c0.23,0.02-0.62-1.17-0.21-1.13
				C68.27,33.69,69.09,35.56,69.06,34.15z M77.28,66.51c-2.26,1.93-4.48,3.83-6.64,5.67C74.24,71.57,77.36,68.94,77.28,66.51z"/>
			<path class="st0" d="M85.58,67.68c1.4-2.89,2.41-5.93,3.23-9.03c1.43-5.42,2.01-10.91,1.3-16.5c-0.66-5.15-2.25-10.01-4.65-14.6
				C81.14,19.32,74.9,12.99,66.64,8.73c-7.3-3.77-15.1-5.28-23.26-4.46c-13.17,1.32-23.74,7.31-31.52,18.05
				c-4.45,6.14-7.1,13.06-8.62,20.45c-0.41,2-0.74,4.01-1.18,6.02c0-1.82-0.15-3.66,0.02-5.47c1.3-13.42,7.48-24.18,18.14-32.3
				c6.62-5.03,14.18-7.96,22.5-8.7c13.52-1.2,25.37,2.73,35.31,11.99c6.99,6.52,11.45,14.56,13.43,23.93
				c0.94,4.48,0.99,9.02,0.53,13.57c-0.4,3.93-1.24,7.76-3.09,11.28c-0.8,1.52-1.82,2.92-2.75,4.36c-0.1,0.15-0.27,0.25-0.41,0.37
				C85.68,67.77,85.63,67.72,85.58,67.68z"/>
			<path class="st4" d="M19.08,58.41c-1.62-1.61-2.77-3.55-3.53-5.66C11.79,42.29,13,32.52,20.56,24.19
				c6.89-7.6,15.64-9.84,25.57-7.17c2.96,0.8,5.75,2.04,8.2,3.93c0.11,0.08,0.2,0.17,0.43,0.37c-0.64,0.1-1.17,0.18-1.68,0.27
				c-5.42,0.98-10.3,3.23-14.82,6.3c-2.44,1.66-4.65,3.57-6.68,5.7c-0.01-0.49-0.08-0.99-0.03-1.48c0.09-0.86,0.25-1.72,0.38-2.58
				c-0.05-0.02-0.1-0.04-0.15-0.07c-0.33,0.42-0.67,0.84-1,1.27c-0.05-0.13-0.17-0.28-0.14-0.39c0.16-0.66,0.36-1.31,0.54-1.96
				c0.68-1.16,1.36-2.32,2.05-3.47c0.26-0.43,0.55-0.83,0.82-1.25c0.68-0.61,1.35-1.21,2.03-1.82c0.37-0.34,0.77-0.65,1.09-1.02
				c0.77-0.9,0.61-1.53-0.48-2.08c-0.28-0.09-0.55-0.22-0.84-0.27c-1.56-0.26-3.06,0.08-4.53,0.55c-2.59,0.82-4.92,2.13-7.04,3.82
				c-3.43,2.74-6.12,6.06-7.81,10.14c-1.75,4.22-2.37,8.61-1.8,13.15c0.34,2.71,1.14,5.28,2.32,7.74c0.41,0.82,0.83,1.65,1.24,2.47
				c0.25,0.46,0.53,0.91,0.75,1.39C19.07,57.92,19.05,58.18,19.08,58.41z"/>
			
				<linearGradient id="SVGID_00000126313907380404267320000000524387760600196787_" gradientUnits="userSpaceOnUse" x1="6.3581" y1="32.5082" x2="37.7996" y2="32.5082">
				<stop  offset="0" style="stop-color:#2484C6"/>
				<stop  offset="1" style="stop-color:#2484C6;stop-opacity:0"/>
			</linearGradient>
			<path style="fill:url(#SVGID_00000126313907380404267320000000524387760600196787_);" d="M37.8,7.73
				c-0.59,1.02-1.49,1.44-2.65,1.57c-1.49,0.16-2.87,0.7-4.19,1.52c2.03,0.16,4.05,0.33,6.08,0.49c0.01,0.05,0.02,0.09,0.03,0.14
				c-0.11,0.08-0.22,0.18-0.34,0.23c-2.56,0.95-5.12,1.87-7.67,2.85c-3.74,1.45-7.17,3.39-9.85,6.47c-0.56,0.65-0.58,0.63,0.15,1.08
				c-1.39,1.88-3,3.63-4.12,5.66c-4.24,7.71-4.93,15.83-2.23,24.21c0.46,1.45,0.49,1.42-0.71,2.34c-1.29,0.99-2.56,2.01-3.84,3.01
				c-0.08-0.14-0.16-0.28-0.25-0.41C7.5,52.99,7.38,49.08,7.9,45.16c0.05-0.34,0.09-0.68-0.01-1.1c-0.45,0.72-0.9,1.45-1.35,2.17
				c-0.06-0.02-0.13-0.04-0.19-0.06c0.07-1.13,0.16-2.26,0.22-3.39c0.05-0.98,0.38-1.85,0.75-2.75c0.58-1.41,0.91-2.92,1.39-4.37
				c0.41-1.26,0.69-2.6,1.34-3.73c1.9-3.32,3.99-6.54,5.92-9.84c1.9-3.24,4.6-5.69,7.6-7.84c4.2-3.01,8.84-5.1,13.82-6.46
				C37.53,7.77,37.67,7.75,37.8,7.73z M29.48,12.36c-1.13,0.03-1.79,0.51-2.35,1.13c-0.1,0.12-0.1,0.32-0.15,0.49
				c0.18,0.05,0.39,0.18,0.54,0.13c0.67-0.2,1.35-0.41,1.99-0.71c0.24-0.11,0.36-0.46,0.53-0.71C29.8,12.55,29.55,12.4,29.48,12.36z
				"/>
			<path class="st6" d="M59.54,61.54c1.05-1.59,1.87-3.29,2.34-5.19c-0.53,0.37-1.02,0.7-1.66,1.15c2.48-6,2.53-11.95,0.87-18.08
				c1.18-0.07,2.34-0.17,3.49-0.16c0.19,0,0.5,0.46,0.55,0.74c0.38,1.95,0.87,3.9,1.02,5.88c0.42,5.51-1.2,10.41-4.8,14.63
				c-0.46,0.54-1.01,0.99-1.52,1.48C59.73,61.83,59.63,61.68,59.54,61.54z"/>
			<path class="st1" d="M16.99,53.86c-1.18-2.46-1.98-5.04-2.32-7.74c-0.57-4.54,0.05-8.93,1.8-13.15
				c1.69-4.08,4.38-7.41,7.81-10.14c2.12-1.69,4.45-3,7.04-3.82c1.48-0.46,2.97-0.8,4.53-0.55c0.29,0.05,0.56,0.18,0.84,0.27
				c-3.03,0.15-5.69,1.4-8.21,2.93c-6.53,3.97-10.57,9.77-12.2,17.22c-0.87,4.01-0.57,7.98,0.91,11.83
				c0.29,0.75,0.52,1.52,0.78,2.28c0,0.22,0,0.44,0,0.58C17.63,53.67,17.31,53.76,16.99,53.86z"/>
			<path class="st1" d="M55.86,69.84c-1.51,0.05-3.02,0.12-4.53,0.14c-4.87,0.05-9.6-0.71-14.06-2.76c-2.5-1.15-4.78-2.65-6.58-4.76
				c-0.61-0.72-1.04-1.6-1.43-2.47c-0.16-0.36-0.03-0.86,0.09-1.32c1.12,1.31,2.12,2.65,3.56,3.72c-0.38-1.02-0.7-1.91-1.03-2.79
				c0.06-0.03,0.11-0.07,0.17-0.1c0.43,0.39,0.85,0.78,1.28,1.17c3.47,3.13,7.58,5.02,12.08,6.12c0.31,0.08,0.62,0.17,0.92,0.26
				c-0.02,0.1-0.1,0.24-0.07,0.28c0.19,0.23,0.4,0.44,0.63,0.63c0.15,0.13,0.33,0.27,0.51,0.3c1.24,0.22,2.46,0.65,3.75,0.45
				c-0.61,0.15-1.21,0.29-1.82,0.44c0,0.07,0,0.13,0,0.2c0.94,0.15,1.87,0.37,2.82,0.43C53.39,69.87,54.62,69.83,55.86,69.84z"/>
			<path class="st4" d="M20.28,63.75c0.76,0.24,1.56,0.37,2.26,0.73c6.6,3.4,13.16,6.89,19.35,11.03c2.23,1.49,4.43,3.02,6.66,4.52
				c0.33,0.22,0.47,0.45,0.38,0.85c-0.11,0.48-0.47,0.31-0.77,0.36c-0.64,0.11-1.07-0.3-1.55-0.59c-0.47-0.28-0.93-0.59-1.39-0.89
				c-0.47-0.34-0.94-0.67-1.45-1.04c-0.06,0.26-0.09,0.38-0.14,0.58c-0.34-0.23-0.63-0.4-0.89-0.61c-0.83-0.65-1.61-1.37-2.47-1.97
				c-3.25-2.23-6.5-4.45-9.8-6.61c-2.2-1.44-4.49-2.76-6.73-4.13c-0.23-0.14-0.45-0.28-0.68-0.42c-0.33-0.18-0.65-0.36-0.98-0.53
				C21.48,64.59,20.88,64.17,20.28,63.75z"/>
			<path class="st1" d="M23.74,65.98c2.25,1.37,4.53,2.69,6.73,4.13c3.3,2.15,6.55,4.38,9.8,6.61c0.87,0.59,1.65,1.32,2.47,1.97
				c0.27,0.21,0.56,0.38,0.89,0.61c0.05-0.2,0.07-0.32,0.14-0.58c0.51,0.37,0.98,0.7,1.45,1.04c0.13,0.29,0.25,0.59,0.43,1
				c-0.54-0.25-1.02-0.46-1.54-0.7c0,0.15,0,0.29,0,0.61c-0.48-0.22-0.91-0.35-1.24-0.59c-1.7-1.24-3.38-2.52-5.07-3.79
				c-0.33-0.25-0.63-0.54-0.98-0.75c-0.12-0.07-0.35,0.04-0.53,0.06c-0.26-0.04-0.56-0.02-0.77-0.15c-0.73-0.47-1.43-1-2.14-1.5
				c-0.03,0.03-0.06,0.07-0.09,0.1c0.07,0.2,0.15,0.39,0.22,0.59c-3.33-2.01-6.66-4.02-9.99-6.04c-0.16-0.1-0.3-0.33-0.33-0.52
				c-0.06-0.36-0.04-0.73-0.05-1.1C23.35,66.64,23.55,66.31,23.74,65.98z"/>
			<path class="st1" d="M57.61,23.57c-0.01,0.17,0.04,0.38-0.05,0.49c-0.07,0.1-0.29,0.09-0.45,0.12
				c-5.35,0.75-10.26,2.73-14.89,5.43c-3.52,2.05-6.7,4.57-9.5,7.54c-0.08,0.08-0.13,0.19-0.24,0.34c-0.46-0.43-0.89-0.77-1.24-1.18
				c-0.35-0.42,0.14-0.57,0.34-0.8c0.23,0,0.56,0.09,0.68-0.03c0.6-0.59,1.14-1.24,1.7-1.87c0.12-0.1,0.24-0.21,0.37-0.31
				c2.23-1.68,4.38-3.48,6.71-5.01c2.7-1.78,5.68-3.07,8.75-4.12c0.98-0.33,2-0.57,3-0.85c0.02,0.07,0.05,0.14,0.07,0.21
				c-0.71,0.32-1.42,0.65-2.13,0.97c0.02,0.05,0.05,0.11,0.07,0.16c0.11-0.01,0.22-0.01,0.33-0.02c2-0.24,4-0.47,5.99-0.73
				C57.29,23.91,57.45,23.7,57.61,23.57z"/>
			<path class="st1" d="M10.12,65.11c-0.65-1.21-1.31-2.4-1.93-3.62c-0.07-0.14,0.01-0.47,0.13-0.58c2.07-1.7,4.15-3.38,6.31-5.13
				c0.77,1.32,1.5,2.58,2.26,3.88c-1.12,0.81-2.16,1.68-3.32,2.33c-0.49,0.28-1.26,0.42-1.89-0.04c-0.16-0.12-0.35-0.18-0.7-0.18
				c0.16,0.5,0.27,1.03,0.49,1.5c0.17,0.36,0.13,0.56-0.13,0.83c-0.33,0.34-0.61,0.74-0.9,1.12C10.33,65.18,10.22,65.15,10.12,65.11
				z"/>
			<path class="st4" d="M33.73,50.51c2.56,4.92,6.39,8.53,11.39,10.87c4.89,2.29,9.95,3.86,15.48,3.1c0.02,0.08,0.03,0.16,0.05,0.23
				c-0.33,0.14-0.65,0.39-0.98,0.41c-1.48,0.08-2.98,0.21-4.46,0.09c-4.6-0.38-8.97-1.61-12.98-3.97c-3.42-2.01-6.35-4.52-8.17-8.14
				c-0.23-0.45-0.47-0.9-0.59-1.39c-0.09-0.37,0-0.78,0.01-1.18C33.56,50.54,33.65,50.52,33.73,50.51z"/>
			<path class="st6" d="M64.28,37.37c-1.18,0.12-2.34,0.25-3.49,0.34c-0.12,0.01-0.33-0.15-0.38-0.28
				c-1.02-2.65-2.42-5.08-4.16-7.32c-0.02-0.03-0.02-0.08-0.06-0.24c1.09-0.1,2.17-0.22,3.25-0.3c0.15-0.01,0.35,0.11,0.47,0.23
				c2.04,2.11,3.48,4.58,4.41,7.36C64.32,37.2,64.3,37.25,64.28,37.37z"/>
			<path class="st4" d="M18.09,41.48c0-0.2-0.05-0.43,0.02-0.61c2.04-5.69,9.45-7.12,13.66-2.56c1.73,1.87,2.75,4.07,2.3,6.71
				c-0.21,1.26-0.64,2.43-1.67,3.3c0.05-0.35,0.11-0.71,0.16-1.06c0.87-1.93,0.61-3.83-0.27-5.63c-0.21-0.06-0.39-0.17-0.49-0.32
				c-0.77-1.17-1.6-2.28-2.85-3c-2.79-2.24-7.29-1.74-9.36,1.05C19.1,40.07,18.59,40.77,18.09,41.48z"/>
			<path class="st7" d="M28.96,38.31c1.25,0.72,2.08,1.82,2.85,3c0.1,0.16,0.29,0.26,0.49,0.32c0.87,1.8,1.14,3.69,0.27,5.63
				c-0.03-0.08-0.05-0.17-0.1-0.33c-0.21,0.23-0.37,0.41-0.56,0.62c-0.04-0.38-0.06-0.67-0.09-0.96c-0.07,0.04-0.15,0.08-0.22,0.12
				c-0.52,1.87-1.31,3.53-3.31,4.26c-1.44-0.23-2.91-0.36-4.33-0.71c-1.69-0.42-3.23-1.18-4.21-2.75c-0.02-0.36-0.53-0.71-0.02-1.08
				c1.71,2.34,4.34,3.46,6.76,2.87c0.48-0.17,0.95-0.35,1.43-0.52c3.68-1.63,4.4-7.03,1.3-9.74c-0.22-0.19-0.45-0.39-0.67-0.58
				C28.69,38.41,28.83,38.36,28.96,38.31z M22.75,49.28c-0.02,0.06-0.04,0.11-0.05,0.17c1.03,0.48,2.11,0.75,3.23,0.8
				c0.01-0.06,0.02-0.11,0.04-0.17C24.89,49.81,23.82,49.54,22.75,49.28z"/>
			<path class="st4" d="M57.18,72.96c0.69-0.48,1.38-0.96,2.11-1.47c1.22,1.91,1.45,3.95,0.61,6.02c-0.67,1.64-2.11,2.19-3.78,2.25
				c-0.09-0.04-0.18-0.08-0.22-0.1c0.37-0.46,0.7-0.88,1.04-1.3c0.09-0.6,0.19-1.2,0.28-1.8c0.03-0.17,0.03-0.34,0.06-0.64
				c-2.92,0.79-5.81,0.98-8.73,0.94c-0.88-0.14-1.76-0.29-2.64-0.43c0.31-0.05,0.61-0.12,0.92-0.14c0.99-0.05,1.98-0.09,2.98-0.13
				l0.06,0c0,0,0.06-0.01,0.06-0.01c0.25-0.02,0.51-0.01,0.75-0.07c1.84-0.49,3.68-1,5.53-1.49c0.27-0.07,0.57-0.05,0.85-0.07
				c1.2,0.38,1.74,0.02,1.68-1.12c-0.01-0.23-0.02-0.46-0.04-0.79c-0.39,0.15-0.66,0.25-0.93,0.35
				C57.57,72.96,57.37,72.96,57.18,72.96z"/>
			<path class="st4" d="M57.61,23.57c-0.16,0.12-0.32,0.33-0.49,0.35c-2,0.26-3.99,0.49-5.99,0.73c-0.11,0.01-0.22,0.01-0.33,0.02
				c-0.02-0.05-0.05-0.11-0.07-0.16c0.71-0.32,1.42-0.65,2.13-0.97c-0.02-0.07-0.05-0.14-0.07-0.21c-1,0.28-2.02,0.52-3,0.85
				c-3.07,1.04-6.05,2.33-8.75,4.12c-2.33,1.54-4.48,3.33-6.71,5.01c-0.13,0.1-0.25,0.2-0.37,0.31c-0.1-0.14-0.19-0.28-0.29-0.42
				c1.94-2.01,4.14-3.68,6.48-5.18c3.4-2.17,7-3.94,10.95-4.84c1.42-0.32,2.89-0.45,4.35-0.58C56.31,22.52,57.08,22.84,57.61,23.57z
				"/>
			<path class="st4" d="M41.75,63.51c-0.8-0.37-1.62-0.73-2.41-1.13c-3.33-1.69-6.2-3.91-8.1-7.21c-0.17-0.3-0.31-0.61-0.47-0.92
				c0.14-0.27,0.27-0.55,0.41-0.82c0.18-0.14,0.37-0.27,0.55-0.41c1.39,2.37,3.01,4.56,5.09,6.38c0.27,0.25,0.55,0.5,0.85,0.77
				c0.05-0.25,0.08-0.4,0.12-0.54c1.47,1.02,2.93,2.03,4.4,3.05C42.04,62.96,41.9,63.23,41.75,63.51z"/>
			<path class="st8" d="M65.07,35.67c1.2,1.65,1.99,3.51,2.52,5.46c1.86,6.92,0.94,13.41-3.15,19.35c-0.64,0.93-1.51,1.72-2.3,2.54
				c-0.15,0.16-0.48,0.14-0.72,0.21c-0.01-0.06-0.01-0.11-0.02-0.17c0.89-1.09,1.87-2.13,2.67-3.29c2.8-4.03,3.87-8.56,3.68-13.42
				c-0.14-3.68-1.21-7.12-2.82-10.41C64.97,35.85,65.02,35.76,65.07,35.67z"/>
			<path class="st4" d="M34.08,79.04c3.3,1.12,6.6,2.28,10.06,2.8c1.78,0.27,3.61,0.43,5.41,0.4c1.05-0.01,1.64,0.32,2.04,1.2
				c-0.41,0.05-0.81,0.14-1.22,0.13c-3.08-0.03-6.12-0.48-9.08-1.28c-2.25-0.61-4.44-1.42-6.65-2.15c-0.18-0.09-0.38-0.17-0.54-0.29
				C33.72,79.6,33.59,79.32,34.08,79.04z"/>
			<path class="st4" d="M55.97,25.61c1.51-0.15,3.02-0.34,4.54-0.4c0.38-0.02,0.84,0.34,1.16,0.63c0.51,0.47,0.36,0.89-0.33,1.07
				c-0.26,0.07-0.54,0.1-0.81,0.1c-3.62-0.02-7.06,0.91-10.49,1.96c-0.26,0.08-0.53,0.15-0.79,0.23c-0.48,0.04-0.96,0.07-1.43,0.11
				c0.98-0.45,1.96-0.9,2.94-1.35c1.69-0.51,3.38-1.02,5.07-1.53c0.27-0.05,0.53-0.11,0.8-0.16c0-0.06,0-0.12,0-0.19
				c-0.22-0.07-0.45-0.14-0.66-0.23C55.95,25.84,55.97,25.7,55.97,25.61z"/>
			<path class="st4" d="M55.86,69.84c-1.23-0.01-2.47,0.03-3.7-0.06c-0.94-0.06-1.88-0.28-2.82-0.43c0-0.07,0-0.13,0-0.2
				c0.61-0.15,1.21-0.29,1.82-0.44c0.59-0.1,1.18-0.16,1.76-0.3c2.13-0.5,4.35-0.67,6.36-1.62c0.08,0.05,0.22,0.12,0.22,0.16
				c-0.02,0.25-0.06,0.49-0.14,0.73c-0.64,2.04-0.28,1.71-2.35,2.05C56.64,69.81,56.24,69.81,55.86,69.84z"/>
			<path class="st1" d="M26.91,64.59c2.72,1.2,5.44,2.43,8.17,3.6c1.16,0.49,2.36,0.86,3.54,1.3c0.2,0.08,0.38,0.22,0.57,0.34
				c-0.16,0-0.32,0-0.58,0c0.51,0.56,0.93,1.02,1.43,1.56c-0.27,0.06-0.4,0.08-0.52,0.11c-0.86-0.3-1.77-0.5-2.56-0.93
				c-3.52-1.9-7.01-3.87-10.5-5.81C26.61,64.7,26.76,64.64,26.91,64.59z"/>
			<path class="st4" d="M10.81,76.14c1.65,0.37,3.35,0.59,4.93,1.14c3.61,1.24,7.06,2.87,10.07,5.28c0.33,0.27,0.55,0.68,0.82,1.02
				c-0.25-0.06-0.53-0.08-0.75-0.19c-1.03-0.52-2.05-1.07-3.07-1.61c-2.52-1.25-5.02-2.54-7.56-3.74c-1.21-0.57-2.5-0.99-3.76-1.47
				C11.26,76.42,11.04,76.28,10.81,76.14z"/>
			<path class="st1" d="M48.54,76.86c2.92,0.05,5.81-0.15,8.73-0.94c-0.03,0.3-0.04,0.47-0.06,0.64c-0.09,0.6-0.18,1.2-0.28,1.8
				c-1.24,0.05-2.48,0.1-3.72,0.15c-1.98-0.45-3.95-0.91-5.93-1.36c0.22-0.01,0.44-0.03,0.66-0.03c0.9,0,1.8,0,2.7,0
				c-0.34-0.12-0.69-0.11-1.02-0.13C49.26,76.96,48.9,76.9,48.54,76.86z"/>
			<path class="st4" d="M19.49,71.09c1.24-0.14,2.43,0.02,3.52,0.63c2.25,1.27,4.49,2.56,6.73,3.85c0.25,0.14,0.45,0.36,0.66,0.63
				c-0.75-0.42-1.43-0.18-2.11,0.1c-1.65-0.99-3.29-2-4.96-2.96c-0.25-0.15-0.64-0.06-0.97-0.07c-0.04,0-0.09,0-0.13,0
				c-0.17-0.04-0.34-0.07-0.51-0.11c0.37-0.24,0.41-0.48-0.01-0.69c-0.51-0.26-1.03-0.5-1.52-0.78
				C19.93,71.53,19.72,71.29,19.49,71.09z"/>
			<path class="st1" d="M59.28,66.8c-2.01,0.96-4.23,1.12-6.36,1.62c-0.58,0.14-1.17,0.2-1.76,0.3c-1.29,0.19-2.51-0.24-3.75-0.45
				c-0.18-0.03-0.36-0.17-0.51-0.3c-0.23-0.19-0.44-0.4-0.63-0.63c-0.04-0.04,0.04-0.19,0.07-0.28c1.76,0.2,3.52,0.4,5.28,0.59
				c0.39,0.04,0.79,0.01,1.2-0.11c-0.29-0.1-0.58-0.21-0.87-0.31c0.47,0,0.94,0,1.4,0c0.05-0.66-0.47-0.73-0.81-0.96
				C54.78,66.44,57.03,66.62,59.28,66.8z"/>
			<path class="st7" d="M34.63,80.15c2.22,0.72,4.41,1.53,6.65,2.15c2.96,0.81,6,1.26,9.08,1.28c0.41,0,0.81-0.09,1.22-0.13
				c0.42,0.83,0.35,0.95-0.54,0.95c-5.51-0.03-10.75-1.36-15.85-3.3C34.99,80.78,34.81,80.47,34.63,80.15z"/>
			<path class="st4" d="M39.44,69.95c1.34,0.25,2.69,0.46,4.03,0.75c4,0.87,8.03,0.94,12.08,0.53c0.24-0.02,0.49,0,0.74,0.06
				c-1.19,0.57-2.47,0.82-3.76,1.02c-1.44-0.05-2.89-0.02-4.32-0.16c-2.65-0.26-5.29-0.6-7.77-1.67
				C40.1,70.33,39.77,70.13,39.44,69.95z"/>
			<path class="st1" d="M39.44,69.95c0.34,0.18,0.66,0.38,1.01,0.53c2.48,1.06,5.12,1.41,7.77,1.67c1.43,0.14,2.88,0.11,4.32,0.16
				c-1.79,0.14-3.6,0.46-5.38,0.38c-2.18-0.1-4.35-0.53-6.52-0.84c-0.38-0.05-0.74-0.23-1.11-0.35c0.13-0.03,0.25-0.05,0.52-0.11
				c-0.49-0.54-0.91-1-1.43-1.56c0.26,0,0.42,0,0.58,0C39.28,69.86,39.36,69.9,39.44,69.95z"/>
			<path class="st7" d="M19.74,46.43c-0.51,0.37,0.01,0.72,0.02,1.08c-0.23-0.13-0.46-0.26-0.72-0.4c-0.02,0.17-0.04,0.3-0.06,0.47
				c-0.15-0.09-0.24-0.14-0.33-0.2c-0.87-1.45-1.1-3.03-0.96-4.68c0.03-0.41,0.26-0.81,0.4-1.22c0.5-0.71,1.01-1.41,1.51-2.12
				c0.42-0.13,0.83-0.26,1.25-0.39c-0.16,0.19-0.31,0.39-0.48,0.58c-1.13,1.31-1.7,2.82-1.38,4.55
				C19.14,44.89,19.48,45.65,19.74,46.43z"/>
			<path class="st1" d="M52.53,66.26c0.35,0.23,0.87,0.3,0.81,0.96c-0.46,0-0.93,0-1.4,0c-2.05-0.64-4.1-1.26-6.14-1.94
				c-0.91-0.3-1.77-0.73-2.65-1.1c0.4,0.08,0.8,0.15,1.29,0.25c-0.38-0.4-0.69-0.74-1-1.07c1.59,0.62,3.16,1.31,4.78,1.83
				C49.63,65.64,51.09,65.91,52.53,66.26z"/>
			<path class="st7" d="M18.65,47.37c0.09,0.06,0.19,0.11,0.33,0.2c0.02-0.17,0.04-0.3,0.06-0.47c0.26,0.15,0.49,0.28,0.72,0.4
				c0.98,1.57,2.52,2.33,4.21,2.75c1.41,0.35,2.88,0.48,4.33,0.71c-1.44,0.73-2.97,0.74-4.47,0.35
				C21.56,50.75,19.77,49.49,18.65,47.37z"/>
			<path class="st4" d="M34.76,36.9c1.37-1.16,2.67-2.41,4.12-3.44c1.71-1.21,3.55-2.22,5.34-3.32c0.33,0.04,0.76-0.49,1,0.15
				c-0.09,0.06-0.18,0.12-0.27,0.18c-1.02,0.63-2.03,1.25-3.05,1.88c-2.43,1.74-4.87,3.49-7.3,5.23
				C34.66,37.36,34.71,37.13,34.76,36.9z"/>
			<path class="st7" d="M30.77,30.72c0.33-0.42,0.67-0.84,1-1.27c0.05,0.02,0.1,0.04,0.15,0.07c-0.13,0.86-0.29,1.72-0.38,2.58
				c-0.05,0.49,0.02,0.99,0.03,1.48c-0.55,0.6-1.11,1.2-1.66,1.79c-0.08-0.04-0.16-0.08-0.23-0.12c0-0.4,0.01-0.8-0.01-1.19
				c0-0.07-0.18-0.12-0.28-0.19c-0.63-0.58-0.64-0.75-0.13-1.65c0.18-0.19,0.34-0.4,0.53-0.58C30.1,31.33,30.44,31.03,30.77,30.72z"
				/>
			<path class="st4" d="M12.59,67.63c3.01-0.24,5.76,0.53,8.26,2.01c-0.85,0.07-1.73,0.14-2.6,0.21c-1.01-0.38-2.03-0.75-3.04-1.13
				c-0.28-0.09-0.56-0.18-0.84-0.27c-0.63-0.1-1.26-0.2-1.9-0.3c-0.13-0.07-0.25-0.14-0.43-0.24C12.26,67.8,12.43,67.71,12.59,67.63
				z"/>
			<path class="st1" d="M57.04,74.52c-0.29,0.02-0.58,0-0.85,0.07c-1.84,0.49-3.68,1-5.53,1.49c-0.24,0.06-0.5,0.05-0.75,0.07
				c-0.23-0.23-0.46-0.46-0.69-0.69c2.56-0.29,5-0.97,7.28-2.2c0.22-0.12,0.45-0.2,0.68-0.3c0.19,0,0.38,0,0.58,0.01
				c-0.29,0.2-0.59,0.39-0.87,0.58c0.07,0.21,0.13,0.38,0.19,0.54C57.06,74.23,57.05,74.38,57.04,74.52z"/>
			<path class="st4" d="M57.62,80.97c0.19-0.12,0.38-0.23,0.56-0.35c0.81-0.53,1.62-1.08,2.44-1.6c0.17-0.11,0.38-0.16,0.58-0.24
				c0.17,0.19,0.39,0.35,0.48,0.57c0.11,0.25,0.23,0.65,0.11,0.8c-0.76,0.97-1.65,1.77-2.95,1.91
				C58.43,81.7,58.02,81.33,57.62,80.97z"/>
			<path class="st7" d="M22.23,73.27c0.04,0,0.09,0,0.13,0c0.18,0.18,0.33,0.39,0.54,0.52c1.55,1.02,3.11,2.02,4.66,3.03
				c-0.66,0.8-0.74,0.81-1.56,0.26c-1.18-0.78-2.36-1.57-3.56-2.33c-0.45-0.29-0.75-0.55-0.22-1.03c0.05-0.05,0-0.21,0-0.31
				C22.23,73.35,22.24,73.31,22.23,73.27z"/>
			<path class="st7" d="M20.28,63.75c0.6,0.42,1.2,0.85,1.8,1.27c-0.97,0.08-1.15,0.32-0.81,1.09c-0.17,0.03-0.41,0.15-0.5,0.08
				c-1.18-0.93-2.34-1.88-3.5-2.83c-0.07-0.05-0.1-0.14-0.27-0.38C18.26,62.96,19.35,62.97,20.28,63.75z"/>
			<path class="st7" d="M36.83,59.4c-2.09-1.82-3.7-4.01-5.09-6.38c-0.11-0.43-0.26-0.79-0.81-0.53c0.56-0.3,0.7-0.84,0.81-1.4
				c0.7,2.14,2.01,3.93,3.38,5.67c0.49,0.62,0.96,1.27,1.44,1.9C36.64,58.91,36.74,59.15,36.83,59.4z"/>
			<path class="st1" d="M55.83,26.44c-1.69,0.51-3.38,1.02-5.07,1.53c-0.57,0.13-1.14,0.26-1.7,0.38c0-0.26,0-0.4,0-0.54
				c1.76-0.59,3.51-1.18,5.27-1.77c0.58,0,1.15,0,1.73,0c0.01,0.06,0.01,0.12,0.02,0.18C56,26.29,55.92,26.36,55.83,26.44z"/>
			<path class="st4" d="M53.08,81.94c0.49-0.1,0.98-0.18,1.46-0.3c1.33-0.33,1.83-0.08,2.36,1.16c-1.1,0.16-2.19,0.33-3.29,0.49
				C53.43,82.84,53.25,82.39,53.08,81.94z"/>
			<path class="st7" d="M27.57,76.81c-1.56-1.01-3.11-2.01-4.66-3.03c-0.21-0.14-0.36-0.35-0.54-0.52c0.33,0.02,0.71-0.07,0.97,0.07
				c1.67,0.96,3.31,1.97,4.96,2.96C28.05,76.46,27.81,76.64,27.57,76.81z"/>
			<path class="st7" d="M34.05,23.66c-0.28,0.42-0.57,0.82-0.82,1.25c-0.69,1.15-1.37,2.31-2.05,3.47
				c-0.19,0.15-0.45,0.27-0.57,0.47c-0.38,0.61-0.72,1.25-1.07,1.87c0-0.28-0.01-0.56-0.01-0.84C30.46,27.39,32,25.33,34.05,23.66z"
				/>
			<path class="st7" d="M53.21,78.5c1.24-0.05,2.48-0.1,3.72-0.15c-0.34,0.42-0.67,0.84-1.04,1.3c0.05,0.02,0.14,0.06,0.22,0.1
				c-0.85,0.08-1.7,0.17-2.55,0.2c-0.12,0-0.34-0.28-0.37-0.46C53.14,79.18,53.2,78.84,53.21,78.5z"/>
			<path class="st1" d="M34.61,37.59c2.43-1.74,4.87-3.49,7.3-5.23c0.38-0.08,0.76-0.17,1.15-0.25c-1.87,1.24-3.77,2.42-5.59,3.72
				c-1.29,0.93-2.47,2.03-3.86,3.19c-0.05-0.32-0.08-0.53-0.11-0.75C33.87,38.04,34.24,37.81,34.61,37.59z"/>
			<path class="st7" d="M15.21,68.72c1.01,0.38,2.03,0.75,3.04,1.13c-0.52,0.22-1.03,0.47-1.56,0.65c-0.16,0.06-0.4,0-0.57-0.09
				c-0.73-0.36-1.44-0.76-2.15-1.14C14.38,69.09,14.8,68.9,15.21,68.72z"/>
			<path class="st7" d="M58.84,82.06c1.31-0.13,2.2-0.94,2.95-1.91c0.12-0.15-0.01-0.55-0.11-0.8c-0.09-0.22-0.32-0.38-0.48-0.57
				c1.26,0.63,1.52,1.63,0.57,2.61c-0.67,0.7-1.46,1.27-2.24,1.94c-0.29-0.48-0.49-0.81-0.68-1.14
				C58.84,82.15,58.84,82.1,58.84,82.06z"/>
			<path class="st1" d="M49.22,75.46c0.23,0.23,0.46,0.46,0.69,0.69c0,0-0.06,0.01-0.06,0.01s-0.06,0-0.06,0
				c-1.45-0.05-2.9-0.1-4.35-0.13c-0.11,0-0.23,0.16-0.35,0.24l-0.03,0.04c-0.59-0.27-1.18-0.53-1.9-0.86
				C45.31,75.46,47.27,75.46,49.22,75.46z"/>
			<path class="st7" d="M20.58,73.81c-1.1-0.5-2.2-1.01-3.3-1.51c0.04-0.19,0.08-0.38,0.13-0.57c0.28-0.12,0.57-0.25,0.85-0.37
				c0.29,0.24,0.56,0.51,0.89,0.7c0.74,0.43,1.51,0.81,2.27,1.21C21.13,73.45,20.86,73.63,20.58,73.81z"/>
			<path class="st9" d="M57.6,33.48c0.02,0.5-0.37,0.91-0.9,0.94c-0.65,0.03-1.37-0.6-1.37-1.19c0-0.5,0.45-0.93,0.99-0.94
				C56.96,32.26,57.57,32.84,57.6,33.48z"/>
			<path class="st7" d="M27.18,54.54c0.21,0.03,0.42,0.07,0.62,0.1c-2.32,0.72-3.99,2.08-4.85,4.38c-0.27-0.87-0.05-1.59,0.5-2.24
				c0.08-0.04,0.18-0.06,0.24-0.12c0.92-0.97,1.98-1.68,3.33-1.88C27.09,54.78,27.13,54.63,27.18,54.54z"/>
			<path class="st7" d="M53.61,83.29c1.1-0.17,2.19-0.33,3.29-0.49c0.47,0.65,0.4,0.92-0.35,1.08c-0.67,0.15-1.35,0.23-2.02,0.36
				c-0.55,0.11-0.71-0.29-0.9-0.65C53.62,83.49,53.62,83.39,53.61,83.29z"/>
			<path class="st7" d="M16.99,53.86c0.32-0.09,0.63-0.19,0.98-0.29c0-0.14,0-0.36,0-0.58c0.28,0.74,0.55,1.47,0.83,2.21
				c0.17,0.56-0.25,0.82-0.57,1.14C17.82,55.51,17.41,54.68,16.99,53.86z"/>
			<path class="st7" d="M21.41,73.27c-0.76-0.4-1.53-0.79-2.27-1.21c-0.32-0.19-0.59-0.46-0.89-0.7c0.41-0.09,0.82-0.18,1.23-0.27
				c0.23,0.2,0.44,0.44,0.7,0.59c0.49,0.29,1.01,0.52,1.52,0.78c0.42,0.22,0.38,0.46,0.01,0.69C21.62,73.19,21.52,73.23,21.41,73.27
				z"/>
			<path class="st7" d="M33.53,74.63c-0.07-0.2-0.15-0.39-0.22-0.59c0.03-0.03,0.06-0.07,0.09-0.1c0.71,0.51,1.41,1.03,2.14,1.5
				c0.2,0.13,0.51,0.1,0.77,0.15c0.24,0.41,0.48,0.82,0.72,1.24c-0.09,0.07-0.18,0.15-0.27,0.22C35.67,76.25,34.6,75.44,33.53,74.63
				z"/>
			<path class="st7" d="M53.61,83.29c0.01,0.1,0.01,0.2,0.02,0.31c0,0.21,0.01,0.42-0.02,0.62c-0.07,0.49-0.16,0.98-0.35,1.43
				c-0.33-1.25-0.65-2.49-0.97-3.71c0.17,0,0.48,0,0.78,0C53.25,82.39,53.43,82.84,53.61,83.29z"/>
			<path class="st1" d="M44.96,30.47c0.09-0.06,0.18-0.12,0.27-0.18c0.38-0.21,0.75-0.42,1.13-0.63c-0.03-0.08-0.07-0.17-0.1-0.25
				c-0.44,0.11-0.87,0.22-1.31,0.33c0.64-0.32,1.28-0.64,1.92-0.97c0.15,0.24,0.29,0.47,0.44,0.71c-0.15,0.1-0.3,0.21-0.44,0.31
				c0.04,0.04,0.09,0.08,0.13,0.12c0.29-0.05,0.58-0.11,0.87-0.16c-0.82,0.37-1.64,0.75-2.46,1.12
				C45.25,30.74,45.1,30.61,44.96,30.47z"/>
			<path class="st7" d="M58.84,82.06c0,0.05,0,0.09,0,0.14c0.02,0.16,0.01,0.33,0.05,0.48c0.22,0.79,0.24,1.55-0.22,2.28
				c0.02-1.49-0.47-2.77-1.47-3.93c0.19-0.02,0.3-0.04,0.41-0.05C58.02,81.33,58.43,81.7,58.84,82.06z"/>
			<path class="st1" d="M47.3,29.48c-0.15-0.24-0.29-0.47-0.44-0.71c0.73-0.32,1.46-0.64,2.19-0.97c0,0.14,0,0.29,0,0.54
				c0.56-0.13,1.13-0.25,1.7-0.38c-0.98,0.45-1.96,0.9-2.94,1.35C47.65,29.37,47.47,29.42,47.3,29.48z"/>
			<path class="st7" d="M18.23,56.33c0.32-0.31,0.74-0.58,0.57-1.14c0.18,0.46,0.37,0.93,0.55,1.39c0.04,0.69,0.45,1.38-0.04,2.06
				c-0.08-0.08-0.16-0.16-0.23-0.23c-0.03-0.23,0-0.49-0.09-0.69C18.76,57.24,18.49,56.79,18.23,56.33z"/>
			<path class="st1" d="M43.44,63.35c0.31,0.34,0.63,0.67,1,1.07c-0.49-0.09-0.89-0.17-1.29-0.25c-0.47-0.22-0.94-0.45-1.4-0.67
				c0.15-0.28,0.29-0.55,0.44-0.83C42.6,62.9,43.02,63.13,43.44,63.35z"/>
			<path class="st7" d="M31.73,51.09c-0.11,0.56-0.25,1.1-0.81,1.4c-0.05,0.08-0.1,0.17-0.16,0.25c-0.1,0.28-0.2,0.57-0.3,0.85
				c-0.09-0.21-0.19-0.41-0.28-0.62c-0.22-0.54-0.25-0.99,0.42-1.26C31.01,51.56,31.36,51.3,31.73,51.09z"/>
			<path class="st7" d="M29.69,78.33c-0.17-0.16-0.34-0.33-0.59-0.56c0.27-0.19,0.49-0.34,0.71-0.5c0.08,0.14,0.14,0.34,0.26,0.41
				c0.54,0.33,1.09,0.63,1.64,0.94c-0.09,0.14-0.17,0.28-0.26,0.42C30.86,78.8,30.27,78.56,29.69,78.33z"/>
			<path class="st7" d="M29.52,29.87c0,0.28,0.01,0.56,0.01,0.84c-0.09,0.51-0.19,1.01-0.28,1.52c-0.51,0.9-0.5,1.07,0.13,1.65
				c-0.12,0.29-0.23,0.57-0.36,0.89C28.41,34.06,28.72,31.32,29.52,29.87z"/>
			<path class="st4" d="M27.18,54.54c-0.05,0.08-0.09,0.23-0.16,0.24c-1.35,0.2-2.41,0.91-3.33,1.88c-0.06,0.06-0.16,0.08-0.24,0.12
				c0.03-0.15,0.03-0.33,0.11-0.45C24.44,55.1,25.65,54.48,27.18,54.54z"/>
			<path class="st10" d="M12.86,69.53c-0.85-0.19-1.71-0.38-2.56-0.57c-0.26-0.06-0.51-0.15-0.97-0.29
				c0.36-0.18,0.56-0.28,0.76-0.37c0.1,0.1,0.19,0.19,0.29,0.29c1.05,0.18,2.1,0.36,3.15,0.53C13.31,69.26,13.08,69.39,12.86,69.53z
				"/>
			<path class="st7" d="M21.27,66.11c-0.33-0.77-0.15-1.01,0.81-1.09c0.33,0.18,0.65,0.36,0.98,0.53c-0.32,0.27-0.64,0.54-0.96,0.81
				C21.82,66.28,21.54,66.2,21.27,66.11z"/>
			<path class="st4" d="M33.67,33.2c0.1,0.14,0.19,0.28,0.29,0.42c-0.56,0.63-1.1,1.28-1.7,1.87c-0.12,0.12-0.45,0.02-0.68,0.03
				C32.27,34.74,32.97,33.97,33.67,33.2z"/>
			<path class="st1" d="M44.96,30.47c0.15,0.13,0.3,0.27,0.44,0.4c-0.78,0.41-1.56,0.82-2.35,1.23c-0.38,0.08-0.76,0.17-1.15,0.25
				C42.92,31.73,43.94,31.1,44.96,30.47z"/>
			<path class="st7" d="M19.31,58.64c0.49-0.68,0.08-1.37,0.04-2.06c0.41,0.92,0.82,1.84,1.24,2.76c-0.05,0.16-0.1,0.32-0.16,0.48
				C20.06,59.43,19.68,59.04,19.31,58.64z"/>
			<path class="st7" d="M22.1,66.36c0.32-0.27,0.64-0.54,0.96-0.81c0.23,0.14,0.45,0.28,0.68,0.42c-0.19,0.33-0.38,0.67-0.58,1
				C22.81,66.77,22.45,66.57,22.1,66.36z"/>
			<path class="st7" d="M32.69,78.91c0.01-0.17,0.03-0.35,0.04-0.53c0.54-0.02,0.69,0.31,0.64,0.7c-0.11,0.86-0.28,1.71-0.43,2.57
				c-0.01-0.57,0-1.14-0.04-1.7C32.88,79.6,32.77,79.26,32.69,78.91z"/>
			<path class="st7" d="M62.57,77.14c0.79,0.26,0.84,0.46,0.3,1.67c-0.43-0.39-0.85-0.76-1.26-1.13
				C62.11,77.81,62.34,77.48,62.57,77.14z"/>
			<path class="st7" d="M10.38,68.59c-0.1-0.1-0.19-0.19-0.29-0.29c0.83-0.22,1.67-0.45,2.5-0.67c-0.17,0.09-0.33,0.17-0.56,0.29
				c0.18,0.1,0.31,0.17,0.43,0.24C11.77,68.3,11.08,68.44,10.38,68.59z"/>
			<path class="st4" d="M31.71,78.62c-0.55-0.31-1.11-0.61-1.64-0.94c-0.12-0.08-0.18-0.27-0.26-0.41c0.5,0.12,0.99,0.25,1.49,0.37
				C31.88,77.78,32,78.12,31.71,78.62z"/>
			<path class="st4" d="M21.41,73.27c0.1-0.04,0.21-0.07,0.31-0.11c0.17,0.04,0.34,0.07,0.51,0.11c0,0.04,0,0.09-0.01,0.13
				c-0.94,0.66-1.88,1.33-2.91,2.06c0.46-0.59,0.86-1.12,1.26-1.64C20.86,73.63,21.13,73.45,21.41,73.27z"/>
			<path class="st7" d="M48.54,76.86c0.36,0.04,0.72,0.1,1.08,0.12c0.34,0.02,0.68,0,1.02,0.13c-0.9,0-1.8,0-2.7,0
				c-0.22,0-0.44,0.02-0.66,0.03c-0.74-0.27-1.47-0.55-2.21-0.82c0,0,0.03-0.04,0.03-0.04c0.27,0.05,0.53,0.1,0.8,0.15
				C46.78,76.57,47.66,76.72,48.54,76.86z"/>
			<path class="st7" d="M34.63,80.15c0.18,0.31,0.37,0.63,0.55,0.94c-0.36-0.14-0.72-0.27-1.07-0.44c-0.46-0.23-0.69-1.19-0.38-1.6
				c0.05-0.06,0.23-0.01,0.35-0.02c-0.49,0.28-0.36,0.56,0.01,0.82C34.25,79.98,34.44,80.06,34.63,80.15z"/>
			<path class="st7" d="M29.69,78.33c0.59,0.24,1.18,0.48,1.76,0.71c-0.02,0.21-0.03,0.42-0.05,0.64c-0.21-0.04-0.44-0.03-0.62-0.13
				C30.28,79.27,29.79,78.96,29.69,78.33z"/>
			<path class="st7" d="M31.6,46.71c0.07-0.04,0.15-0.08,0.22-0.12c0.03,0.29,0.06,0.59,0.09,0.96c0.19-0.21,0.35-0.39,0.56-0.62
				c0.05,0.16,0.07,0.24,0.1,0.33c-0.05,0.35-0.11,0.71-0.16,1.06c-0.09,0.14-0.19,0.27-0.28,0.41c-0.14-0.32-0.28-0.64-0.43-0.96
				C31.67,47.42,31.64,47.06,31.6,46.71z"/>
			<path class="st4" d="M12.86,69.53c0.22-0.14,0.45-0.27,0.67-0.41c0.28-0.22,0.56-0.45,0.83-0.67c0.28,0.09,0.56,0.18,0.84,0.27
				c-0.41,0.19-0.82,0.37-1.24,0.56c-0.47,0.3-0.94,0.6-1.42,0.89c-0.03-0.04-0.06-0.09-0.09-0.13
				C12.6,69.87,12.73,69.7,12.86,69.53z"/>
			<path class="st4" d="M26.74,79.18c0.64-0.57,1.28-1.15,1.93-1.72c0.08,0.09,0.15,0.18,0.23,0.26c-0.65,0.56-1.29,1.12-1.94,1.68
				C26.89,79.32,26.82,79.25,26.74,79.18z"/>
			<path class="st4" d="M17.4,71.73c-0.04,0.19-0.08,0.38-0.13,0.57c-0.5,0.46-1,0.92-1.5,1.38c-0.04-0.04-0.08-0.08-0.13-0.12
				C16.09,72.82,16.65,72.19,17.4,71.73z"/>
			<path class="st7" d="M62.57,77.14c-0.23,0.34-0.46,0.68-0.96,0.54c-0.13-0.1-0.27-0.2-0.4-0.3c0.12-0.14,0.24-0.39,0.37-0.4
				C61.91,76.98,62.24,77.08,62.57,77.14z"/>
			<path class="st4" d="M44.94,29.74c0.44-0.11,0.87-0.22,1.31-0.33c0.03,0.08,0.07,0.17,0.1,0.25c-0.38,0.21-0.75,0.42-1.13,0.63
				c-0.24-0.64-0.67-0.11-1-0.15C44.47,30.01,44.7,29.87,44.94,29.74z"/>
			<path class="st4" d="M36.83,59.4c-0.09-0.25-0.18-0.49-0.27-0.74c0.41,0.32,0.83,0.65,1.24,0.97c-0.03,0.15-0.06,0.29-0.12,0.54
				C37.37,59.9,37.1,59.65,36.83,59.4z"/>
			<path class="st7" d="M55.83,26.44c0.08-0.07,0.16-0.15,0.24-0.22c-0.01-0.06-0.01-0.12-0.02-0.18c-0.58,0-1.15,0-1.73,0
				c0.55-0.14,1.1-0.29,1.64-0.43c0,0.09-0.02,0.23,0.01,0.25c0.21,0.09,0.44,0.16,0.66,0.23c0,0.06,0,0.12,0,0.19
				C56.37,26.33,56.1,26.38,55.83,26.44z"/>
			<path class="st7" d="M26.91,64.59c-0.15,0.06-0.3,0.11-0.45,0.17c-0.54-0.31-1.08-0.62-1.62-0.93c0.03-0.06,0.07-0.13,0.1-0.19
				C25.6,63.95,26.26,64.27,26.91,64.59z"/>
			<path class="st4" d="M47.3,29.48c0.17-0.05,0.35-0.11,0.52-0.16c0.48-0.04,0.95-0.07,1.43-0.11c-0.46,0.18-0.93,0.36-1.39,0.55
				c-0.29,0.05-0.58,0.11-0.87,0.16c-0.04-0.04-0.09-0.08-0.13-0.12C47,29.69,47.15,29.58,47.3,29.48z"/>
			<path class="st7" d="M20.43,59.83c0.05-0.16,0.1-0.32,0.16-0.48c0.23,0.41,0.46,0.82,0.68,1.23c-0.07,0.05-0.14,0.11-0.22,0.16
				C20.85,60.44,20.64,60.13,20.43,59.83z"/>
			<path class="st11" d="M65.07,35.67c-0.05,0.09-0.1,0.18-0.14,0.28c-0.35-0.57-0.7-1.15-1.06-1.72
				C64.48,34.54,64.84,35.05,65.07,35.67z"/>
			<path class="st7" d="M31.7,47.77c0.14,0.32,0.28,0.64,0.43,0.96c-0.23,0.2-0.47,0.4-0.7,0.6c-0.06-0.03-0.12-0.06-0.18-0.09
				C31.4,48.75,31.55,48.26,31.7,47.77z"/>
			<path class="st7" d="M32.69,78.91c0.07,0.35,0.19,0.69,0.21,1.04c0.04,0.56,0.03,1.13,0.04,1.7c-0.09,0-0.25-0.01-0.25-0.01
				C32.69,80.73,32.69,79.82,32.69,78.91z"/>
			<path class="st4" d="M34.61,37.59c-0.37,0.23-0.74,0.45-1.11,0.68c0.42-0.45,0.84-0.91,1.26-1.36
				C34.71,37.13,34.66,37.36,34.61,37.59z"/>
			<path class="st7" d="M30.47,53.6c0.1-0.28,0.2-0.57,0.3-0.85c0.14,0.23,0.28,0.46,0.42,0.69c-0.14,0.27-0.27,0.55-0.41,0.82
				C30.67,54.03,30.57,53.82,30.47,53.6z"/>
			<path class="st12" d="M59.54,61.54c0.1,0.15,0.19,0.29,0.29,0.44c-0.31,0.22-0.62,0.44-0.93,0.65c-0.05-0.06-0.1-0.12-0.16-0.18
				C59,62.14,59.27,61.84,59.54,61.54z"/>
			
				<linearGradient id="SVGID_00000050649052948551789410000010368944228769480110_" gradientUnits="userSpaceOnUse" x1="75.3785" y1="49.597" x2="82.1458" y2="49.597">
				<stop  offset="0" style="stop-color:#2484C6"/>
				<stop  offset="1" style="stop-color:#2484C6;stop-opacity:0"/>
			</linearGradient>
			
				<linearGradient id="SVGID_00000183960286422172067600000003071412234143228089_" gradientUnits="userSpaceOnUse" x1="74.8785" y1="49.597" x2="82.6458" y2="49.597">
				<stop  offset="0" style="stop-color:#2484C6"/>
				<stop  offset="1" style="stop-color:#2484C6;stop-opacity:0"/>
			</linearGradient>
			
				<path style="fill:url(#SVGID_00000050649052948551789410000010368944228769480110_);stroke:url(#SVGID_00000183960286422172067600000003071412234143228089_);stroke-miterlimit:10;" d="
				M81.17,53.16c-0.8,1.76-3.77,1.84-5.16-0.55c-1.09-1.89-0.73-5.17,0.74-6.8c1.09-1.21,2.64-1.41,3.88-0.45
				c1.17,0.91,2.17,2.44,0.98,4.04c-0.58,0.78-1.27,1.49-1.91,2.23c-0.16,0.19-0.42,0.34-0.49,0.56c-0.08,0.23-0.06,0.57,0.07,0.75
				c0.09,0.13,0.48,0.17,0.66,0.09c0.39-0.18,0.73-0.46,1.09-0.7C81.08,52.6,81.12,52.88,81.17,53.16z"/>
			
				<linearGradient id="SVGID_00000094576846825712583330000008430098283560649383_" gradientUnits="userSpaceOnUse" x1="58.941" y1="17.0096" x2="67.0917" y2="17.0096">
				<stop  offset="0" style="stop-color:#2484C6"/>
				<stop  offset="1" style="stop-color:#2484C6;stop-opacity:0"/>
			</linearGradient>
			
				<linearGradient id="SVGID_00000037662159843915550740000006619107013967055246_" gradientUnits="userSpaceOnUse" x1="58.441" y1="17.0096" x2="67.5917" y2="17.0096">
				<stop  offset="0" style="stop-color:#2484C6"/>
				<stop  offset="1" style="stop-color:#2484C6;stop-opacity:0"/>
			</linearGradient>
			
				<path style="fill:url(#SVGID_00000094576846825712583330000008430098283560649383_);stroke:url(#SVGID_00000037662159843915550740000006619107013967055246_);stroke-miterlimit:10;" d="
				M64.75,20.23c-2.15-0.3-4.17-1.31-5.41-3.49c-0.95-1.67-0.13-3.09,1.71-2.94c2.51,0.2,4.49,1.41,5.7,3.65
				C67.61,19.05,66.82,20.23,64.75,20.23z"/>
			
				<linearGradient id="SVGID_00000059291537779670684660000013824673162547273386_" gradientUnits="userSpaceOnUse" x1="73.6068" y1="36.2374" x2="80.075" y2="36.2374">
				<stop  offset="0" style="stop-color:#2484C6"/>
				<stop  offset="1" style="stop-color:#2484C6;stop-opacity:0"/>
			</linearGradient>
			
				<linearGradient id="SVGID_00000118376600174441406320000010572381839400453052_" gradientUnits="userSpaceOnUse" x1="73.1068" y1="36.2374" x2="80.575" y2="36.2374">
				<stop  offset="0" style="stop-color:#2484C6"/>
				<stop  offset="1" style="stop-color:#2484C6;stop-opacity:0"/>
			</linearGradient>
			
				<path style="fill:url(#SVGID_00000059291537779670684660000013824673162547273386_);stroke:url(#SVGID_00000118376600174441406320000010572381839400453052_);stroke-miterlimit:10;" d="
				M73.61,35.18c0.02-1.78,1.23-2.72,2.94-2.17c1.89,0.61,3.08,1.94,3.48,3.89c0.33,1.62-0.9,2.87-2.58,2.7
				C75.38,39.4,73.59,37.33,73.61,35.18z"/>
			
				<linearGradient id="SVGID_00000107553451543598032000000011285330937781990287_" gradientUnits="userSpaceOnUse" x1="76.7677" y1="26.4883" x2="80.389" y2="26.4883">
				<stop  offset="0" style="stop-color:#2484C6"/>
				<stop  offset="1" style="stop-color:#2484C6;stop-opacity:0"/>
			</linearGradient>
			
				<linearGradient id="SVGID_00000109745593373449719710000002516950523778263690_" gradientUnits="userSpaceOnUse" x1="75.8841" y1="26.0148" x2="80.9126" y2="26.0148">
				<stop  offset="0" style="stop-color:#2484C6"/>
				<stop  offset="1" style="stop-color:#2484C6;stop-opacity:0"/>
			</linearGradient>
			
				<path style="fill:url(#SVGID_00000107553451543598032000000011285330937781990287_);stroke:url(#SVGID_00000109745593373449719710000002516950523778263690_);stroke-miterlimit:10;" d="
				M76.77,22.89c2,1.97,3.41,4.22,3.62,7.04c-0.11,0.05-0.22,0.11-0.34,0.16C78.42,27.95,77.39,25.52,76.77,22.89z"/>
			
				<linearGradient id="SVGID_00000167378348941493701640000008851164197610154644_" gradientUnits="userSpaceOnUse" x1="69.6678" y1="20.0746" x2="72.002" y2="20.0746">
				<stop  offset="0" style="stop-color:#2484C6"/>
				<stop  offset="1" style="stop-color:#2484C6;stop-opacity:0"/>
			</linearGradient>
			
				<linearGradient id="SVGID_00000075849219950132963130000003048578981765460891_" gradientUnits="userSpaceOnUse" x1="69.1678" y1="20.0746" x2="72.502" y2="20.0746">
				<stop  offset="0" style="stop-color:#2484C6"/>
				<stop  offset="1" style="stop-color:#2484C6;stop-opacity:0"/>
			</linearGradient>
			
				<path style="fill:url(#SVGID_00000167378348941493701640000008851164197610154644_);stroke:url(#SVGID_00000075849219950132963130000003048578981765460891_);stroke-miterlimit:10;" d="
				M69.67,19.08c-0.01-0.45,0.23-0.56,0.62-0.44c0.71,0.21,1.76,1.75,1.71,2.51c-0.02,0.37-0.21,0.48-0.55,0.36
				C70.8,21.27,69.7,19.78,69.67,19.08z"/>
			
				<linearGradient id="SVGID_00000022548967839844459480000009603675073244817569_" gradientUnits="userSpaceOnUse" x1="56.5902" y1="11.7871" x2="59.0244" y2="11.7871">
				<stop  offset="0" style="stop-color:#2484C6"/>
				<stop  offset="1" style="stop-color:#2484C6;stop-opacity:0"/>
			</linearGradient>
			
				<linearGradient id="SVGID_00000137119311857023639730000009635848773912018580_" gradientUnits="userSpaceOnUse" x1="56.0902" y1="11.8185" x2="59.5244" y2="11.8185">
				<stop  offset="0" style="stop-color:#2484C6"/>
				<stop  offset="1" style="stop-color:#2484C6;stop-opacity:0"/>
			</linearGradient>
			
				<path style="fill:url(#SVGID_00000022548967839844459480000009603675073244817569_);stroke:url(#SVGID_00000137119311857023639730000009635848773912018580_);stroke-miterlimit:10;" d="
				M58.32,12.66c-0.53-0.32-1.09-0.64-1.62-1.02c-0.11-0.08-0.14-0.39-0.08-0.55c0.04-0.11,0.34-0.22,0.46-0.17
				c0.58,0.24,1.16,0.51,1.7,0.83c0.15,0.09,0.28,0.42,0.23,0.57C58.97,12.47,58.65,12.51,58.32,12.66z"/>
			
				<linearGradient id="SVGID_00000146484148206569487290000012278664962174786952_" gradientUnits="userSpaceOnUse" x1="74.3781" y1="27.2908" x2="75.4943" y2="27.2908">
				<stop  offset="0" style="stop-color:#2484C6"/>
				<stop  offset="1" style="stop-color:#2484C6;stop-opacity:0"/>
			</linearGradient>
			
				<linearGradient id="SVGID_00000006708354089595128300000013117425917252170672_" gradientUnits="userSpaceOnUse" x1="73.8781" y1="27.2901" x2="75.9943" y2="27.2901">
				<stop  offset="0" style="stop-color:#2484C6"/>
				<stop  offset="1" style="stop-color:#2484C6;stop-opacity:0"/>
			</linearGradient>
			
				<path style="fill:url(#SVGID_00000146484148206569487290000012278664962174786952_);stroke:url(#SVGID_00000006708354089595128300000013117425917252170672_);stroke-miterlimit:10;" d="
				M74.58,26.6c0.45,0,1.03,0.82,0.89,1.18c-0.03,0.09-0.19,0.22-0.22,0.2c-0.23-0.12-0.51-0.23-0.64-0.42
				c-0.15-0.22-0.18-0.53-0.23-0.81C74.37,26.7,74.54,26.63,74.58,26.6z"/>
			
				<linearGradient id="SVGID_00000039119667183352404650000013239221596563580347_" gradientUnits="userSpaceOnUse" x1="50.6645" y1="13.0623" x2="52.3673" y2="13.0623">
				<stop  offset="0" style="stop-color:#2484C6"/>
				<stop  offset="1" style="stop-color:#2484C6;stop-opacity:0"/>
			</linearGradient>
			
				<linearGradient id="SVGID_00000156581244582332792890000017131776168733955215_" gradientUnits="userSpaceOnUse" x1="49.91" y1="13.0623" x2="53.0757" y2="13.0623">
				<stop  offset="0" style="stop-color:#2484C6"/>
				<stop  offset="1" style="stop-color:#2484C6;stop-opacity:0"/>
			</linearGradient>
			
				<path style="fill:url(#SVGID_00000039119667183352404650000013239221596563580347_);stroke:url(#SVGID_00000156581244582332792890000017131776168733955215_);stroke-miterlimit:10;" d="
				M50.66,12.75c0.73-0.24,1.33-0.03,1.7,0.56C51.73,13.65,51.09,13.45,50.66,12.75z"/>
			<path class="st21" d="M81.17,53.16c-0.05-0.28-0.1-0.55-0.14-0.83c0.28-0.35,0.55-0.7,0.83-1.05c0.08,0.04,0.15,0.09,0.23,0.13
				C81.78,51.99,81.48,52.57,81.17,53.16z"/>
			<path class="st0" d="M77.28,66.51c0.08,2.44-3.04,5.07-6.64,5.67C72.8,70.34,75.02,68.44,77.28,66.51z"/>
			<path class="st7" d="M29.25,32.23c0.09-0.51,0.19-1.01,0.28-1.52c0.35-0.63,0.69-1.27,1.07-1.87c0.12-0.2,0.38-0.31,0.57-0.47
				c-0.18,0.65-0.38,1.3-0.54,1.96c-0.03,0.11,0.09,0.26,0.14,0.39c-0.33,0.31-0.67,0.61-1,0.93
				C29.59,31.83,29.42,32.03,29.25,32.23z"/>
			<path class="st0" d="M29.48,12.36c0.07,0.04,0.32,0.19,0.56,0.34c-0.17,0.24-0.3,0.6-0.53,0.71c-0.64,0.3-1.31,0.51-1.99,0.71
				c-0.15,0.05-0.36-0.08-0.54-0.13c0.05-0.17,0.05-0.37,0.15-0.49C27.69,12.87,28.34,12.39,29.48,12.36z"/>
			<path class="st7" d="M20.85,38.97c-0.42,0.13-0.83,0.26-1.25,0.39c2.08-2.78,6.57-3.29,9.36-1.05c-0.14,0.05-0.27,0.1-0.41,0.14
				C25.88,37.01,23.3,37.06,20.85,38.97z"/>
			<path class="st2" d="M20.85,38.97c2.45-1.9,5.03-1.96,7.7-0.51c0.22,0.19,0.45,0.39,0.67,0.58c3.1,2.71,2.38,8.11-1.3,9.74
				c-0.11-0.29-0.22-0.57-0.33-0.86c0.46-0.44,0.92-0.88,1.38-1.32c0.17-0.09,0.38-0.15,0.49-0.28c1.31-1.65,1.14-4.64-0.34-6.12
				c-0.19-0.22-0.39-0.43-0.58-0.65c-0.67-0.68-1.49-1.02-2.42-1.14c-1.35-0.31-2.61-0.04-3.78,0.66c-0.27,0.19-0.55,0.38-0.82,0.57
				c-1.57,1.36-2.14,3.69-1.37,5.68c0.41,1.3,1.36,2.11,2.49,2.75c0.97,0.31,1.94,0.61,2.91,0.92c0.02-0.04,0.04-0.08,0.06-0.13
				c-0.31,0.03-0.62,0.06-0.93,0.09c0.01,0.05,0.01,0.09,0.02,0.14c0.6,0.07,1.2,0.14,1.8,0.22c-2.43,0.59-5.05-0.52-6.76-2.87
				c-0.25-0.78-0.6-1.54-0.74-2.33c-0.31-1.73,0.25-3.24,1.38-4.55C20.54,39.36,20.69,39.16,20.85,38.97z"/>
			<path class="st22" d="M27.6,47.91c0.11,0.29,0.22,0.57,0.33,0.86c-0.48,0.17-0.95,0.35-1.43,0.52c-0.6-0.07-1.2-0.14-1.8-0.22
				c-0.01-0.05-0.01-0.09-0.02-0.14c0.31-0.03,0.62-0.06,0.93-0.09c-0.02,0.04-0.04,0.08-0.06,0.13c-0.97-0.31-1.94-0.61-2.91-0.92
				c1.18,0.29,2.37,0.47,3.58,0.14C26.68,48.1,27.14,48.01,27.6,47.91z"/>
			<path class="st4" d="M22.75,49.28c1.07,0.27,2.15,0.53,3.22,0.8c-0.01,0.06-0.02,0.11-0.04,0.17c-1.13-0.05-2.2-0.32-3.23-0.8
				C22.71,49.39,22.73,49.33,22.75,49.28z"/>
			<path class="st7" d="M57.04,74.52c0.01-0.14,0.02-0.29,0.04-0.43c0.55-0.23,1.1-0.46,1.65-0.69
				C58.78,74.54,58.24,74.9,57.04,74.52z"/>
			<path class="st7" d="M58.72,73.4c-0.55,0.23-1.1,0.46-1.65,0.69c-0.06-0.17-0.12-0.34-0.19-0.54c0.29-0.19,0.58-0.38,0.87-0.58
				c0.27-0.1,0.54-0.21,0.93-0.35C58.7,72.94,58.71,73.17,58.72,73.4z"/>
			<path class="st7" d="M45.9,76.43c-0.27-0.05-0.53-0.1-0.8-0.15c0.12-0.08,0.23-0.24,0.35-0.24c1.45,0.03,2.9,0.08,4.35,0.13
				c-0.99,0.04-1.98,0.07-2.98,0.13C46.51,76.31,46.21,76.38,45.9,76.43z"/>
			<path class="st4" d="M31.18,53.43c-0.14-0.23-0.28-0.46-0.42-0.69c0.05-0.08,0.1-0.17,0.16-0.25c0.56-0.26,0.7,0.1,0.81,0.53
				C31.55,53.16,31.37,53.29,31.18,53.43z"/>
			<path class="st7" d="M14.36,68.45c-0.28,0.22-0.56,0.45-0.83,0.67c-1.05-0.18-2.1-0.36-3.15-0.53c0.7-0.14,1.39-0.29,2.09-0.43
				C13.1,68.25,13.73,68.35,14.36,68.45z"/>
			<path class="st7" d="M27.6,47.91c-0.46,0.1-0.92,0.19-1.37,0.29c-0.55-0.03-1.09-0.07-1.64-0.1c0-0.09-0.01-0.18-0.01-0.28
				c0.33-0.1,0.65-0.2,0.98-0.29c0.46-0.18,0.93-0.36,1.39-0.54c1.76-1.01,2.6-2.85,2-4.65c-0.23-0.7-0.71-1.32-1.07-1.98
				c0.24-0.04,0.48-0.09,0.71-0.13c1.47,2.04,1.78,4.15,0.39,6.37C28.52,47.04,28.06,47.47,27.6,47.91z"/>
			<path class="st23" d="M25.56,47.53c-0.33,0.1-0.65,0.2-0.98,0.29c0,0.09,0.01,0.18,0.01,0.28c0.55,0.03,1.09,0.07,1.64,0.1
				c-1.21,0.33-2.4,0.15-3.58-0.14c-1.13-0.64-2.08-1.45-2.49-2.75c0.13-0.13,0.31-0.24,0.37-0.39c0.08-0.22,0.05-0.48,0.07-0.73
				c0.58,1.57,1.54,2.73,3.28,3.05C24.44,47.34,25,47.44,25.56,47.53z"/>
			<path class="st24" d="M20.6,44.19c-0.02,0.24,0,0.5-0.07,0.73c-0.05,0.15-0.24,0.26-0.37,0.39c-0.77-1.99-0.2-4.32,1.37-5.68
				c-0.07,0.22-0.15,0.44-0.22,0.67c-0.15,0.47-0.3,0.95-0.45,1.42C20.68,42.54,20.19,43.32,20.6,44.19z"/>
			<path class="st4" d="M28.98,46.6c1.39-2.22,1.08-4.33-0.39-6.37c0.18-0.01,0.36-0.02,0.55-0.04c1.48,1.48,1.65,4.48,0.34,6.12
				C29.37,46.45,29.15,46.5,28.98,46.6z"/>
			<path class="st24" d="M20.85,41.73c0.15-0.47,0.3-0.95,0.45-1.42c0.07-0.22,0.15-0.44,0.22-0.67c0.27-0.19,0.55-0.38,0.82-0.57
				c0.17,0.03,0.35,0.1,0.51,0.07c0.72-0.13,1.43-0.28,2.14-0.42c0.5,0.23,1.01,0.46,1.51,0.69C24.06,38.83,22.09,39.39,20.85,41.73
				z"/>
			<path class="st4" d="M26.13,38.4c0.93,0.12,1.76,0.47,2.42,1.14c-0.3,0.56-0.71,0.19-1.08,0.12c-0.64-0.32-1.28-0.65-1.92-0.97
				c-0.26-0.06-0.52-0.13-0.89-0.22C25.22,38.44,25.68,38.42,26.13,38.4z"/>
			<path class="st7" d="M26.13,38.4c-0.45,0.02-0.91,0.04-1.47,0.07c0.37,0.09,0.63,0.16,0.89,0.22c-0.18,0.01-0.37,0.01-0.55,0.02
				c-0.71,0.14-1.42,0.3-2.14,0.42c-0.16,0.03-0.34-0.05-0.51-0.07C23.52,38.36,24.78,38.09,26.13,38.4z"/>
			<path class="st24" d="M27.47,39.66c0.37,0.07,0.78,0.44,1.08-0.12c0.19,0.22,0.39,0.43,0.58,0.65c-0.18,0.01-0.36,0.02-0.55,0.04
				c-0.24,0.05-0.48,0.09-0.71,0.13c-0.24-0.23-0.48-0.46-0.72-0.68C27.26,39.67,27.37,39.66,27.47,39.66z"/>
			<path class="st7" d="M27.16,39.68c0.24,0.23,0.48,0.46,0.72,0.68c0.37,0.66,0.84,1.28,1.07,1.98c0.59,1.81-0.24,3.64-2,4.65
				c-0.17-0.06-0.34-0.19-0.5-0.17c-0.86,0.12-1.72,0.28-2.57,0.42c-1.74-0.32-2.7-1.47-3.28-3.05c-0.4-0.87,0.09-1.65,0.26-2.47
				c1.24-2.34,3.21-2.9,5.65-2.33C26.72,39.49,26.94,39.58,27.16,39.68z M24.41,40.06c-1.35,0.06-2.3,0.73-2.76,1.98
				c-0.87,2.32,0.7,4.35,3.33,4.36c1.02,0.01,1.86-0.43,2.56-1.12c1.07-1.05,1.07-3,0.04-3.94c-0.03-0.02-0.07-0.03-0.11-0.03
				C26.69,40.21,25.37,39.66,24.41,40.06z"/>
			<path class="st25" d="M23.87,47.24c0.86-0.14,1.71-0.3,2.57-0.42c0.16-0.02,0.33,0.11,0.5,0.17c-0.46,0.18-0.93,0.36-1.39,0.54
				C25,47.44,24.44,47.34,23.87,47.24z"/>
			<path class="st7" d="M27.16,39.68c-0.22-0.09-0.44-0.18-0.66-0.28c-0.5-0.23-1.01-0.46-1.51-0.69c0.18-0.01,0.37-0.01,0.55-0.02
				c0.64,0.32,1.28,0.65,1.92,0.97C27.37,39.66,27.26,39.67,27.16,39.68z"/>
			<path class="st26" d="M27.47,41.31c0.04,0.01,0.07,0.02,0.11,0.03c0.64,1.46,0.39,2.79-0.73,3.87c-0.52,0.5-1.24,0.8-1.87,1.19
				c-2.63-0.01-4.19-2.04-3.33-4.36c0.47-1.25,1.41-1.92,2.76-1.98c1.09,0.73,2.19,1.45,3.23,2.15C27.61,42,27.54,41.65,27.47,41.31
				z M23.7,40.64c-0.17,0.26-0.35,0.46-0.32,0.51c0.13,0.18,0.32,0.33,0.51,0.46c0.02,0.01,0.28-0.21,0.26-0.26
				C24.06,41.14,23.91,40.96,23.7,40.64z"/>
			<path class="st24" d="M24.98,46.4c0.63-0.39,1.35-0.69,1.87-1.19c1.12-1.08,1.37-2.41,0.73-3.87c1.02,0.94,1.03,2.89-0.04,3.94
				C26.84,45.96,26,46.41,24.98,46.4z"/>
			<path class="st4" d="M27.47,41.31c0.07,0.35,0.14,0.7,0.18,0.9c-1.04-0.69-2.14-1.42-3.23-2.15
				C25.37,39.66,26.69,40.21,27.47,41.31z"/>
			<path class="st27" d="M23.7,40.64c0.21,0.32,0.36,0.5,0.45,0.7c0.02,0.04-0.24,0.27-0.26,0.26c-0.19-0.13-0.38-0.27-0.51-0.46
				C23.35,41.1,23.53,40.9,23.7,40.64z"/>
		</g>
	</g>
</g>
</svg>
